<svg width="1920" height="1358" viewBox="0 0 1920 1358" fill="none" xmlns="http://www.w3.org/2000/svg">
<path d="M1930.75 -10.5664V1369.27H-11.1582V-10.5664H1930.75Z" fill="white" stroke="#8957E9"/>
<path d="M2263.7 -13.7676C2259.94 -6.2369 2256.16 1.28313 2251.96 8.80176C2243.74 23.4097 2234.38 37.5643 2224.11 51.4941C2110.38 204.495 1882.9 302.018 1690.63 273.474L1690.62 273.473C1653.13 268.051 1619.21 257.936 1589.98 244.238L1590.44 244.013L1589.51 243.572C1572.36 235.427 1554.81 227.482 1536.85 219.926L1533.26 218.419C1465.58 189.839 1391.5 165.148 1312.4 145.028C1312.4 145.028 1312.4 145.028 1312.4 145.027C1312.4 145.027 1312.39 145.026 1312.39 145.024C1312.38 145.022 1312.37 145.018 1312.35 145.013C1312.31 145.002 1312.26 144.986 1312.18 144.965C1312.04 144.923 1311.83 144.861 1311.54 144.78C1310.97 144.619 1310.12 144.383 1308.99 144.082C1307.29 143.631 1304.97 143.035 1302.03 142.331L1298.89 141.592C1218.86 121.701 1133.81 106.612 1044.88 96.5527H1044.88C963.031 87.1788 877.752 82.3779 790.418 82.3779C509.027 82.3779 251.162 132.888 49.2724 217.467H-11.6153V-13.7676H2263.7Z" fill="url(#paint0_linear_5001_9603)" stroke="#8957E9"/>
<g style="mix-blend-mode:screen">
<path d="M1775.54 -13.7676L2223.61 52.1631C2109.72 204.779 1882.62 301.976 1690.63 273.474L1690.62 273.473C1653.13 268.051 1619.21 257.936 1589.98 244.238L1590.43 244.013L1589.51 243.572C1571.31 234.93 1552.67 226.514 1533.56 218.548V218.422L1533.39 218.271C1417.93 119.86 1247.4 37.9613 1035.96 -13.7676H1775.54Z" fill="url(#paint1_linear_5001_9603)" style="mix-blend-mode:screen"/>
<path d="M1775.54 -13.7676L2223.61 52.1631C2109.72 204.779 1882.62 301.976 1690.63 273.474L1690.62 273.473C1653.13 268.051 1619.21 257.936 1589.98 244.238L1590.43 244.013L1589.51 243.572C1571.31 234.93 1552.67 226.514 1533.56 218.548V218.422L1533.39 218.271C1417.93 119.86 1247.4 37.9613 1035.96 -13.7676H1775.54Z" stroke="#8957E9"/>
</g>
<path d="M-11.6153 121.927C402.107 48.9938 758.272 63.6445 997.922 91.7119C930.59 85.5298 861.179 82.3779 790.418 82.3779C509.01 82.378 201.327 153.23 -0.565491 237.812L-11.6153 238.028V121.927Z" fill="url(#paint2_linear_5001_9603)" stroke="#8957E9"/>
<path d="M2002.13 1369.08L-231.403 1520.08C-230.058 1512.3 -228.492 1504.52 -226.493 1496.75L-226.491 1496.74C-222.841 1481.69 -217.822 1466.85 -211.887 1452.47C-144.778 1292.46 50.8949 1178.27 249.571 1191.52V1191.52C288.407 1194.23 324.78 1201.4 357.809 1212.82L357.349 1213.05L358.474 1213.43C377.765 1220.08 397.459 1226.52 417.557 1232.58L421.581 1233.78C497.034 1256.88 577.514 1275.4 661.649 1289.11V1289.11L661.65 1289.11C661.66 1289.12 661.675 1289.12 661.693 1289.12C661.731 1289.13 661.788 1289.14 661.863 1289.15C662.014 1289.18 662.239 1289.22 662.538 1289.28C663.136 1289.38 664.031 1289.54 665.218 1289.74C666.999 1290.04 669.439 1290.44 672.526 1290.91L675.829 1291.4C760.879 1304.89 849.585 1313.35 940.348 1316.32V1316.32C1024.03 1319.29 1109.76 1317.46 1196.18 1310.61C1474.13 1288.66 1714.18 1218.49 1888.65 1119.28L1926.08 1116.35L2002.13 1369.08Z" fill="url(#paint3_linear_5001_9603)" stroke="#8957E9"/>
<g style="mix-blend-mode:screen">
<path d="M-211.614 1451.83C-144.251 1292.16 51.1617 1178.29 249.571 1191.52V1191.52C288.408 1194.23 324.781 1201.4 357.81 1212.82L357.35 1213.05L358.475 1213.43C378.938 1220.48 399.855 1227.3 421.225 1233.68V1233.81L421.462 1233.96C564.857 1322.36 757.683 1389.97 981.979 1424.69L251.199 1482.18L-211.614 1451.83Z" fill="url(#paint4_linear_5001_9603)" style="mix-blend-mode:screen"/>
<path d="M-211.614 1451.83C-144.251 1292.16 51.1617 1178.29 249.571 1191.52V1191.52C288.408 1194.23 324.781 1201.4 357.81 1212.82L357.35 1213.05L358.475 1213.43C378.938 1220.48 399.855 1227.3 421.225 1233.68V1233.81L421.462 1233.96C564.857 1322.36 757.683 1389.97 981.979 1424.69L251.199 1482.18L-211.614 1451.83Z" stroke="#8957E9"/>
</g>
<path d="M1931.3 1099.86L1954.66 1210.78C1590.45 1312.67 1237.38 1326.16 992.407 1317.54C1059.44 1318.32 1127.6 1316.05 1196.18 1310.61L1196.18 1310.6C1474.14 1288.66 1745.7 1199.3 1920.18 1099.86H1931.3Z" fill="#8957E9" stroke="#8957E9"/>
<defs>
<linearGradient id="paint0_linear_5001_9603" x1="176182" y1="53206.5" x2="2.44348e+06" y2="53206.5" gradientUnits="userSpaceOnUse">
<stop offset="0.16" stop-color="#596DE7"/>
<stop offset="0.87" stop-color="#596DE7"/>
</linearGradient>
<linearGradient id="paint1_linear_5001_9603" x1="638078" y1="53206.5" x2="1.26045e+06" y2="53206.5" gradientUnits="userSpaceOnUse">
<stop offset="0.16" stop-color="#6A4797"/>
<stop offset="0.87" stop-color="#323678" stop-opacity="0"/>
</linearGradient>
<linearGradient id="paint2_linear_5001_9603" x1="81784.8" y1="37117.8" x2="570452" y2="37117.8" gradientUnits="userSpaceOnUse">
<stop stop-color="#D6E3F4"/>
<stop offset="0.57" stop-color="#62A8D9"/>
<stop offset="0.87" stop-color="#4C88C3"/>
</linearGradient>
<linearGradient id="paint3_linear_5001_9603" x1="-3209.51" y1="-308555" x2="-2.15979e+06" y2="23092.6" gradientUnits="userSpaceOnUse">
<stop stop-color="#D6E3F4"/>
<stop offset="0.57" stop-color="#62A8D9"/>
<stop offset="0.87" stop-color="#4C88C3"/>
</linearGradient>
<linearGradient id="paint4_linear_5001_9603" x1="-623165" y1="-288721" x2="-725364" y2="-64542.2" gradientUnits="userSpaceOnUse">
<stop stop-color="#4C88C3"/>
<stop offset="1" stop-color="#D6E3F4" stop-opacity="0"/>
</linearGradient>
</defs>
</svg>
