<svg width="1920" height="1356" viewBox="0 0 1920 1356" fill="none" xmlns="http://www.w3.org/2000/svg">
<path d="M1939.15 1375.17H-19.3824V-20.0518H1939.15V1375.17Z" fill="#2A2D30"/>
<path d="M1889.22 92.2856V1262.83C1889.22 1266.02 1886.71 1268.53 1883.52 1268.53C1855.92 1268.53 1833.35 1291.09 1833.35 1318.66C1833.35 1321.85 1830.84 1324.36 1827.65 1324.36H92.1236C88.9312 1324.36 86.4228 1321.85 86.4228 1318.66C86.4228 1291.09 63.848 1268.53 36.2566 1268.53C33.0642 1268.53 30.5558 1266.02 30.5558 1262.83V92.2856C30.5558 89.0954 33.0642 86.5889 36.2566 86.5889C63.848 86.5889 86.4228 64.258 86.4228 36.4584C86.4228 33.4961 88.9312 30.7617 92.1236 30.7617H1827.65C1830.84 30.7617 1833.35 33.4961 1833.35 36.4584C1833.35 64.258 1855.92 86.5889 1883.52 86.5889C1886.71 86.5889 1889.22 89.0954 1889.22 92.2856Z" fill="#FEFEFE"/>
<path fill-rule="evenodd" clip-rule="evenodd" d="M1889.22 92.2856V1262.83C1889.22 1266.02 1886.71 1268.53 1883.52 1268.53C1855.92 1268.53 1833.35 1291.09 1833.35 1318.66C1833.35 1321.85 1830.84 1324.36 1827.65 1324.36H92.1236C88.9312 1324.36 86.4228 1321.85 86.4228 1318.66C86.4228 1291.09 63.848 1268.53 36.2566 1268.53C33.0642 1268.53 30.5558 1266.02 30.5558 1262.83V92.2856C30.5558 89.0954 33.0642 86.5889 36.2566 86.5889C63.848 86.5889 86.4228 64.258 86.4228 36.4584C86.4228 33.4961 88.9312 30.7617 92.1236 30.7617H1827.65C1830.84 30.7617 1833.35 33.4961 1833.35 36.4584C1833.35 64.258 1855.92 86.5889 1883.52 86.5889C1886.71 86.5889 1889.22 89.0954 1889.22 92.2856ZM1877.81 97.7544C1848.4 95.02 1824.91 71.5498 1822.18 42.155H97.3682C94.8599 71.5498 71.373 95.02 41.9573 97.7544V1257.36C71.373 1260.1 94.8599 1283.57 97.3682 1312.96H1822.18C1824.91 1283.57 1848.4 1260.1 1877.81 1257.36V97.7544Z" fill="#596DE7"/>
<path fill-rule="evenodd" clip-rule="evenodd" d="M1805.99 1294.96H113.786C112.646 1294.96 111.962 1294.51 111.506 1293.6C103.753 1269.9 84.8266 1251.21 61.3397 1243.46C60.4276 1243.01 59.7435 1242.1 59.7435 1241.19V113.933C59.7435 113.021 60.4276 112.11 61.3397 111.882C84.8266 103.907 103.753 85.2215 111.506 61.7513C111.962 60.8399 112.646 60.1562 113.786 60.1562H1805.99C1807.13 60.1562 1807.81 60.8399 1808.27 61.7513C1816.02 85.2215 1834.95 103.907 1858.43 111.882C1859.34 112.11 1860.03 113.021 1860.03 113.933V1241.19C1860.03 1242.1 1859.34 1243.01 1858.43 1243.46C1834.95 1251.21 1816.02 1269.9 1808.27 1293.6C1807.81 1294.51 1807.13 1294.96 1805.99 1294.96ZM115.382 1290.41H1804.39C1812.83 1266.94 1831.75 1248.02 1855.47 1239.59V115.528C1831.75 107.097 1812.83 88.4116 1804.39 64.7136H115.382C106.945 88.4116 88.019 107.097 64.304 115.528V1239.59C88.019 1248.02 106.945 1266.94 115.382 1290.41Z" fill="#596DE7"/>
<g opacity="0.4">
<path d="M1732.33 1202.45C1728.46 1197.44 1724.12 1192.88 1719.11 1189.23C1716.37 1186.95 1713.18 1185.13 1709.76 1183.76C1697.44 1176.47 1683.08 1172.6 1669.17 1178.3C1650.93 1185.59 1645.45 1207.01 1652.29 1224.1C1659.36 1241.19 1677.83 1255.09 1696.99 1250.53C1712.72 1246.88 1723.44 1229.57 1714.55 1214.98C1714.09 1214.3 1712.72 1214.75 1713.18 1215.44C1720.48 1232.98 1707.48 1249.39 1688.78 1249.16C1671.22 1248.93 1656.4 1233.44 1652.52 1217.26C1647.96 1197.66 1660.73 1178.98 1681.25 1177.61C1687.64 1177.16 1693.57 1178.3 1699.5 1180.35C1696 1179.89 1692.58 1179.82 1689.24 1180.12C1670.99 1182.4 1656.4 1201.77 1668.03 1218.4C1671.45 1223.64 1678.97 1228.43 1685.59 1226.15C1690.6 1224.32 1694.25 1216.81 1688.32 1213.39C1684.45 1211.34 1678.75 1214.75 1680.57 1219.31C1681.03 1220.68 1682.17 1221.59 1683.31 1221.82C1677.83 1225.69 1672.13 1221.13 1669.17 1216.35C1667.34 1213.39 1666.2 1209.29 1665.98 1205.64C1665.98 1198.35 1670.08 1191.97 1675.78 1187.64C1689.69 1177.38 1707.93 1182.4 1720.25 1192.42C1729.37 1199.72 1733.93 1209.74 1741 1218.4C1744.87 1223.19 1750.57 1226.6 1756.28 1222.27C1756.5 1222.05 1756.28 1221.59 1755.82 1221.82C1744.65 1227.74 1737.35 1208.83 1732.33 1202.45Z" fill="#596DE7"/>
<path d="M1648.65 1233.21C1649.33 1238.45 1652.98 1243.69 1657.08 1247.34C1660.73 1250.53 1666.89 1254.63 1672.13 1253.04C1672.82 1252.81 1673.05 1251.9 1672.59 1251.44C1669.17 1248.48 1664.15 1247.57 1660.5 1245.06C1655.71 1241.64 1652.52 1237.54 1649.1 1232.98C1648.87 1232.98 1648.65 1232.98 1648.65 1233.21Z" fill="#596DE7"/>
<path d="M1665.52 1279.01C1662.1 1275.6 1657.31 1273.32 1653.89 1269.67C1649.79 1265.57 1646.37 1260.33 1644.77 1254.86H1644.54C1645 1261.01 1646.82 1266.48 1650.7 1271.49C1653.89 1275.82 1659.14 1280.61 1664.84 1280.84C1665.75 1280.84 1666.2 1279.7 1665.52 1279.01Z" fill="#596DE7"/>
<path d="M1755.14 1211.11C1757.87 1218.17 1762.43 1225.01 1762.43 1232.76C1762.43 1237.31 1761.52 1242.33 1758.33 1245.52C1756.28 1247.79 1753.54 1248.93 1750.8 1249.39C1749.59 1249.69 1748.45 1249.69 1747.38 1249.39C1745.25 1249.24 1743.73 1248.25 1742.82 1246.43C1747.84 1247.57 1751.26 1240.73 1746.24 1237.54C1738.49 1232.53 1735.53 1245.29 1740.77 1250.07C1748.07 1256.45 1759.24 1251.44 1763.12 1243.92C1768.82 1232.98 1762.89 1219.54 1755.82 1210.88C1755.59 1210.42 1754.91 1210.88 1755.14 1211.11Z" fill="#596DE7"/>
<path fill-rule="evenodd" clip-rule="evenodd" d="M1758.1 1212.93C1762.66 1216.81 1767.68 1221.36 1771.33 1226.6C1771.1 1226.38 1771.33 1226.15 1771.55 1226.15C1777.48 1230.25 1782.73 1235.03 1787.97 1239.59C1793.9 1244.83 1800.06 1249.85 1805.76 1255.31C1806.21 1255.77 1805.53 1256.91 1804.85 1256.45C1804.54 1256.3 1804.31 1256.07 1804.16 1255.77C1804.16 1255.77 1804.09 1255.77 1803.93 1255.77C1801.65 1255.09 1799.6 1253.49 1797.09 1252.81C1794.36 1252.12 1791.39 1251.9 1788.66 1252.12C1787.74 1252.35 1787.52 1251.67 1787.74 1250.98C1785.46 1246.88 1784.1 1242.78 1781.36 1238.91C1779.53 1236.17 1776.8 1234.12 1774.29 1231.84C1775.66 1234.58 1776.57 1237.54 1776.8 1240.5C1777.71 1248.02 1774.97 1257.82 1766.54 1259.87C1765.4 1260.1 1764.71 1258.73 1765.4 1257.82C1772.01 1249.39 1775.66 1243.69 1771.55 1232.53C1768.59 1225.01 1762.89 1219.31 1757.64 1213.16C1757.64 1212.93 1757.87 1212.7 1758.1 1212.93ZM1788.43 1249.16C1788.58 1249.47 1788.66 1249.77 1788.66 1250.07C1788.96 1250.07 1789.34 1250 1789.8 1249.85C1789.49 1249.69 1789.19 1249.47 1788.88 1249.16C1788.73 1249.16 1788.58 1249.16 1788.43 1249.16ZM1794.58 1250.3C1794.28 1250 1793.98 1249.69 1793.67 1249.39C1793.52 1249.69 1793.29 1249.92 1792.99 1250.07C1793.44 1250.07 1793.98 1250.15 1794.58 1250.3ZM1771.33 1226.6C1771.63 1227.06 1771.93 1227.51 1772.24 1227.97C1772.39 1227.97 1772.54 1228.05 1772.69 1228.2C1772.24 1227.74 1771.78 1227.21 1771.33 1226.6Z" fill="#596DE7"/>
<path d="M1662.56 1257.59C1662.33 1257.59 1662.1 1257.82 1662.33 1257.82C1668.71 1266.25 1685.59 1275.14 1695.39 1267.62C1696.08 1267.16 1695.85 1266.02 1694.94 1265.8C1689.69 1264.89 1684.22 1266.02 1678.75 1265.11C1672.59 1264.2 1667.34 1261.24 1662.56 1257.59Z" fill="#596DE7"/>
<path d="M1634.96 1260.33C1639.3 1253.72 1640.44 1245.97 1638.16 1238.68C1637.93 1238 1636.79 1238 1636.79 1238.68C1637.24 1245.97 1636.1 1253.04 1631.32 1258.96C1629.26 1261.47 1626.98 1263.52 1624.25 1265.34C1622.19 1266.48 1621.51 1266.71 1620.37 1268.76C1620.14 1269.21 1620.37 1269.67 1620.83 1269.67C1626.3 1271.27 1632.23 1264.43 1634.96 1260.33Z" fill="#596DE7"/>
<path d="M1641.58 1227.52C1642.03 1238.23 1645.23 1248.71 1650.93 1257.82C1660.96 1273.77 1681.94 1284.94 1700.86 1278.33C1701.78 1278.1 1701.32 1276.96 1700.41 1276.96C1664.84 1282.43 1642.95 1252.13 1643.86 1220.91C1644.16 1219.54 1644.47 1218.17 1644.77 1216.81C1645 1216.35 1644.54 1216.12 1644.09 1216.12C1644.77 1209.29 1646.59 1202.45 1649.79 1196.07C1658.68 1177.84 1676.47 1168.5 1696.99 1172.14C1717.28 1175.79 1731.88 1190.37 1746.93 1202.91C1747.38 1203.36 1747.84 1202.91 1747.61 1202.45C1732.79 1186.04 1712.72 1169.87 1689.69 1168.95C1669.85 1168.27 1654.12 1180.12 1646.59 1197.44C1643.4 1205.18 1641.58 1213.62 1641.35 1222.05C1635.88 1234.81 1629.72 1248.71 1615.35 1253.72C1605.09 1257.37 1591.64 1254.18 1587.99 1242.78C1586.39 1238 1587.08 1232.07 1590.95 1228.2C1593.69 1225.62 1596.88 1224.33 1600.53 1224.33C1605.85 1224.33 1608.89 1226.83 1609.65 1231.84C1603.04 1224.78 1595.74 1242.1 1606.92 1240.96C1613.76 1240.28 1613.99 1232.07 1610.79 1227.74C1606.92 1222.5 1599.16 1221.82 1593.46 1224.1C1575.68 1231.84 1587.76 1255.32 1602.81 1257.59C1622.19 1260.33 1634.96 1243.92 1641.58 1227.52Z" fill="#596DE7"/>
<path d="M1502.02 1253.72C1504.76 1254.4 1576.13 1243.24 1576.13 1243.24L1580.47 1254.4L1502.02 1253.72Z" fill="#596DE7"/>
<path d="M1751.49 1183.76C1746.7 1179.89 1741.91 1175.79 1738.26 1170.78C1735.98 1167.89 1734.08 1164.78 1732.56 1161.43C1725.26 1149.36 1721.39 1135.23 1727.09 1121.33C1734.61 1103.33 1756.28 1097.86 1773.38 1104.7C1790.71 1111.53 1804.85 1129.76 1800.29 1148.9C1796.64 1164.4 1779.08 1174.88 1764.26 1165.99C1763.57 1165.54 1764.03 1164.4 1764.71 1164.62C1782.5 1172.14 1799.14 1159.16 1798.92 1140.7C1798.69 1123.38 1782.95 1108.57 1766.54 1104.92C1746.93 1100.37 1728 1112.9 1726.4 1133.18C1726.18 1139.56 1727.32 1145.48 1729.37 1151.18C1728.76 1147.84 1728.68 1144.5 1729.14 1141.15C1731.42 1123.15 1751.03 1108.8 1767.9 1120.19C1772.92 1123.61 1777.94 1130.9 1775.66 1137.51C1773.83 1142.52 1766.08 1145.94 1762.66 1140.24C1760.61 1136.6 1764.03 1130.67 1768.59 1132.49C1770.19 1133.18 1770.87 1134.09 1771.1 1135.46C1775.2 1129.99 1770.41 1124.29 1765.62 1121.33C1762.66 1119.51 1758.56 1118.37 1754.91 1118.14C1747.38 1118.14 1741 1122.01 1736.67 1127.94C1726.4 1141.61 1731.19 1159.61 1741.45 1171.69C1748.98 1180.8 1759.01 1185.13 1767.9 1192.2C1772.69 1196.07 1775.89 1201.77 1771.78 1207.23C1771.55 1207.69 1770.87 1207.46 1771.1 1207.01C1777.03 1195.84 1758.1 1188.55 1751.49 1183.76Z" fill="#596DE7"/>
<path d="M1782.73 1101.05C1788.2 1101.73 1793.44 1105.38 1797.09 1109.25C1800.28 1112.9 1804.39 1119.05 1802.79 1124.29C1802.57 1124.75 1801.65 1125.2 1801.2 1124.52C1798.23 1121.33 1797.32 1116.54 1794.58 1112.67C1791.39 1107.89 1787.29 1104.92 1782.5 1101.51C1782.5 1101.28 1782.5 1101.05 1782.73 1101.05Z" fill="#596DE7"/>
<path d="M1829.24 1117.68C1825.6 1114.27 1823.32 1109.71 1819.67 1106.06C1815.56 1102.19 1810.32 1098.77 1804.62 1097.18C1804.62 1097.18 1804.62 1096.95 1804.85 1096.95C1811 1097.4 1816.48 1099.23 1821.49 1103.1C1825.82 1106.29 1830.84 1111.3 1830.84 1117C1830.84 1117.91 1829.7 1118.37 1829.24 1117.68Z" fill="#596DE7"/>
<path d="M1760.38 1206.32C1767.68 1209.06 1774.29 1213.39 1782.27 1213.62C1786.83 1213.62 1791.85 1212.48 1795.27 1209.29C1797.32 1207.46 1798.69 1204.73 1799.15 1201.99C1799.45 1200.78 1799.45 1199.64 1799.15 1198.58C1798.99 1196.45 1798 1194.93 1796.18 1194.02C1797.32 1199.03 1790.25 1202.45 1787.06 1197.44C1782.04 1189.69 1795.04 1186.96 1799.83 1192.2C1806.21 1199.26 1801.2 1210.43 1793.67 1214.07C1782.5 1219.77 1768.82 1213.84 1760.15 1206.78C1759.7 1206.55 1760.15 1206.1 1760.38 1206.32Z" fill="#596DE7"/>
<path fill-rule="evenodd" clip-rule="evenodd" d="M1762.43 1208.83C1768.59 1213.84 1774.52 1219.54 1782.04 1222.27C1793.44 1226.6 1799.14 1222.96 1807.81 1216.35C1808.72 1215.67 1809.86 1216.35 1809.63 1217.49C1807.81 1225.69 1797.78 1228.43 1790.25 1227.74C1787.06 1227.29 1784.1 1226.38 1781.36 1225.24C1783.64 1227.74 1785.69 1230.25 1788.66 1232.3C1792.3 1234.81 1796.64 1236.4 1800.74 1238.45C1801.43 1238.23 1802.11 1238.45 1801.88 1239.36C1801.65 1242.1 1801.88 1244.83 1802.57 1247.57C1803.25 1250.07 1804.85 1252.13 1805.53 1254.63C1805.68 1254.63 1805.68 1254.63 1805.53 1254.63C1805.83 1254.78 1806.06 1255.01 1806.21 1255.32C1806.67 1256 1805.76 1256.68 1805.07 1256.23C1799.37 1250.76 1794.58 1244.61 1789.34 1238.68C1784.55 1233.44 1779.53 1228.43 1775.66 1222.5C1775.43 1222.27 1775.89 1222.05 1776.11 1222.27C1770.64 1218.63 1766.08 1213.84 1762.2 1209.06C1761.98 1208.83 1762.2 1208.6 1762.43 1208.83ZM1798.92 1239.59C1799.22 1239.9 1799.45 1240.2 1799.6 1240.5C1799.6 1240.05 1799.68 1239.67 1799.83 1239.36C1799.52 1239.36 1799.14 1239.29 1798.69 1239.14C1798.84 1239.29 1798.92 1239.44 1798.92 1239.59ZM1799.83 1243.69C1799.68 1244 1799.45 1244.23 1799.14 1244.38C1799.45 1244.68 1799.75 1244.91 1800.06 1245.06C1799.91 1244.61 1799.83 1244.15 1799.83 1243.69ZM1777.71 1223.64C1777.56 1223.49 1777.48 1223.26 1777.48 1222.96C1777.03 1222.81 1776.57 1222.58 1776.11 1222.27C1776.72 1222.73 1777.25 1223.19 1777.71 1223.64Z" fill="#596DE7"/>
<path d="M1807.35 1114.72C1807.35 1114.49 1807.58 1114.27 1807.81 1114.49C1816.25 1120.87 1825.14 1137.51 1817.39 1147.31C1816.93 1147.76 1816.02 1147.53 1815.79 1146.85C1814.88 1141.61 1816.02 1136.14 1815.11 1130.67C1813.97 1124.75 1811.23 1119.51 1807.35 1114.72Z" fill="#596DE7"/>
<path d="M1810.09 1087.61C1803.71 1091.71 1795.5 1092.85 1788.2 1090.57C1787.52 1090.34 1787.52 1089.43 1788.43 1089.43C1795.72 1089.66 1802.79 1088.52 1808.72 1083.96C1811.46 1081.91 1813.51 1079.63 1815.11 1076.9C1816.48 1074.84 1816.7 1074.16 1818.76 1073.02C1819.21 1072.79 1819.67 1073.02 1819.67 1073.48C1821.26 1078.95 1814.19 1084.87 1810.09 1087.61Z" fill="#596DE7"/>
<path d="M1777.03 1093.99C1787.74 1094.44 1798.46 1097.63 1807.58 1103.1C1823.77 1113.13 1835.17 1133.86 1828.56 1152.55C1828.1 1153.46 1826.96 1153 1827.19 1152.32C1832.44 1117 1801.88 1095.35 1770.41 1096.26C1768.89 1096.57 1767.45 1096.95 1766.08 1097.4C1765.62 1097.4 1765.4 1096.95 1765.4 1096.49C1758.56 1097.18 1751.49 1099 1745.1 1102.19C1726.63 1110.85 1717.28 1128.62 1720.93 1148.67C1724.58 1168.95 1739.4 1183.31 1752.17 1198.12C1752.4 1198.58 1751.94 1199.03 1751.49 1198.8C1735.07 1183.99 1718.65 1164.4 1717.74 1141.38C1716.83 1122.01 1728.91 1106.52 1746.7 1099C1754.22 1095.81 1762.89 1093.99 1771.33 1093.76C1784.55 1088.29 1798.46 1082.36 1803.48 1068.01C1807.13 1057.98 1803.93 1044.54 1792.53 1040.89C1787.52 1039.53 1781.59 1040.21 1777.71 1043.85C1775.13 1046.59 1773.83 1049.78 1773.83 1053.43C1773.83 1058.74 1776.34 1061.78 1781.36 1062.54C1774.29 1055.93 1791.85 1048.64 1790.71 1059.81C1790.02 1066.41 1781.59 1066.87 1777.25 1063.68C1772.01 1059.81 1771.1 1052.29 1773.61 1046.59C1781.36 1028.82 1805.07 1040.89 1807.35 1055.93C1810.32 1074.84 1793.67 1087.38 1777.03 1093.99Z" fill="#596DE7"/>
<path d="M1803.48 956.127C1804.39 958.861 1792.76 1029.27 1792.76 1029.27L1804.39 1033.6L1803.48 956.127Z" fill="#596DE7"/>
<path d="M1800.51 1239.36C1800.06 1238.45 1799.15 1238.45 1798.23 1238.45C1797.55 1238.68 1797.32 1239.59 1797.78 1240.05C1798.23 1240.35 1798.61 1240.66 1798.92 1240.96C1798.92 1240.5 1798.99 1240.05 1799.15 1239.59C1798.23 1240.05 1797.09 1240.28 1797.09 1241.19C1797.09 1241.42 1797.09 1241.64 1797.32 1241.64C1798.23 1242.33 1799.15 1241.42 1800.06 1241.19C1800.51 1240.96 1800.74 1240.05 1800.29 1239.82C1799.83 1239.36 1799.45 1238.98 1799.15 1238.68C1798.99 1239.29 1798.84 1239.82 1798.69 1240.28C1798.92 1240.28 1799.37 1240.28 1799.6 1240.28C1800.29 1240.73 1800.97 1240.05 1800.51 1239.36Z" fill="#596DE7"/>
<path d="M1799.14 1245.29C1799.45 1245.44 1799.75 1245.67 1800.06 1245.97C1800.51 1246.43 1801.65 1245.74 1801.2 1245.06C1800.51 1244.15 1799.83 1243.24 1799.14 1242.33C1798.46 1241.64 1797.32 1242.33 1797.55 1243.24C1797.78 1243.92 1798 1244.61 1798.92 1244.83C1799.07 1244.98 1799.22 1244.91 1799.37 1244.61C1799.83 1244.15 1799.6 1243.47 1799.37 1242.78C1798.76 1243.09 1798.23 1243.39 1797.78 1243.69C1798.46 1244.38 1799.14 1245.29 1800.06 1245.97C1800.36 1245.52 1800.67 1245.14 1800.97 1244.83C1800.67 1244.53 1800.36 1244.3 1800.06 1244.15C1799.37 1243.69 1798.69 1244.61 1799.14 1245.29Z" fill="#596DE7"/>
<path d="M1795.72 1249.85C1794.2 1249.39 1792.61 1249.09 1790.94 1248.93C1790.94 1249.54 1790.94 1250.07 1790.94 1250.53C1791.54 1250.68 1792.15 1250.76 1792.76 1250.76C1792.76 1250.15 1792.76 1249.62 1792.76 1249.16C1791.54 1249.16 1790.33 1249.16 1789.11 1249.16C1789.26 1249.47 1789.49 1249.69 1789.8 1249.85C1789.8 1249.39 1789.57 1249.16 1789.34 1248.93C1789.34 1248.48 1788.66 1248.48 1788.43 1248.71C1787.74 1248.93 1788.2 1249.39 1788.43 1250.07C1788.43 1250.3 1788.66 1250.53 1789.11 1250.53C1790.33 1250.53 1791.54 1250.61 1792.76 1250.76C1793.9 1250.76 1793.9 1249.16 1792.76 1249.16C1792.15 1249.01 1791.54 1248.93 1790.94 1248.93C1790.02 1248.93 1790.02 1250.53 1790.94 1250.53C1792.46 1250.68 1793.98 1250.68 1795.5 1250.53C1795.95 1250.53 1796.18 1249.85 1795.72 1249.85Z" fill="#596DE7"/>
<path d="M1774.75 1220.68C1775.2 1222.05 1776.34 1223.19 1777.25 1224.55C1778.17 1225.69 1779.08 1226.83 1780.22 1227.51C1780.67 1227.74 1781.13 1227.51 1780.9 1227.06C1780.67 1225.69 1779.53 1224.55 1778.62 1223.41C1777.71 1222.27 1776.8 1220.91 1775.43 1220.22C1775.2 1220 1774.75 1220.22 1774.75 1220.68Z" fill="#596DE7"/>
<path d="M1760.61 1207.92C1764.26 1213.39 1769.5 1218.17 1774.29 1222.96C1778.85 1227.74 1783.41 1232.98 1788.88 1236.86C1789.34 1237.09 1789.8 1236.63 1789.57 1236.17C1785.92 1230.7 1780.45 1226.15 1775.89 1221.36C1771.1 1216.58 1766.54 1211.34 1761.06 1207.46C1760.84 1207.23 1760.38 1207.69 1760.61 1207.92Z" fill="#596DE7"/>
<path d="M1755.59 1211.11C1759.92 1217.49 1765.85 1222.96 1771.33 1228.43C1777.25 1234.81 1782.95 1241.41 1789.8 1246.66C1790.25 1247.11 1790.94 1246.66 1790.48 1246.2C1785.69 1239.59 1779.53 1233.67 1773.83 1227.97C1768.13 1222.05 1762.66 1215.44 1756.05 1210.65C1755.82 1210.43 1755.36 1210.88 1755.59 1211.11Z" fill="#596DE7"/>
<path d="M1760.38 1206.78C1760.38 1206.93 1760.38 1207.01 1760.38 1207.01C1760.15 1207.01 1760.15 1207.24 1760.38 1207.24C1760.84 1207.46 1760.84 1206.78 1760.38 1206.78Z" fill="#596DE7"/>
<path d="M1760.15 1207.24C1761.98 1210.88 1765.85 1214.07 1768.82 1217.03C1771.78 1220.22 1774.52 1223.87 1778.17 1226.15C1778.62 1226.38 1778.85 1225.92 1778.62 1225.69C1776.57 1222.05 1772.92 1219.08 1769.96 1215.89C1766.99 1212.93 1764.03 1209.06 1760.38 1207.01C1760.15 1206.78 1759.92 1207.01 1760.15 1207.24Z" fill="#596DE7"/>
<path d="M192.228 1202.45C196.105 1197.44 200.437 1192.88 205.454 1189.23C208.418 1186.95 211.61 1185.13 214.803 1183.76C227.116 1176.47 241.482 1172.6 255.392 1178.3C273.634 1185.59 279.335 1207.01 272.266 1224.1C265.425 1241.19 246.955 1255.09 227.573 1250.53C211.839 1246.88 201.121 1229.57 210.242 1214.98C210.698 1214.3 211.839 1214.75 211.611 1215.44C204.086 1232.98 217.311 1249.39 235.782 1249.16C253.34 1248.93 268.39 1233.44 272.038 1217.26C276.599 1197.66 264.057 1178.98 243.534 1177.61C237.15 1177.16 230.993 1178.3 225.292 1180.35C228.637 1179.89 232.057 1179.82 235.553 1180.12C253.568 1182.4 268.162 1201.77 256.76 1218.4C253.112 1223.64 245.815 1228.43 239.202 1226.15C234.185 1224.32 230.537 1216.81 236.466 1213.39C240.114 1211.34 246.043 1214.75 244.219 1219.31C243.534 1220.68 242.394 1221.59 241.254 1221.82C246.727 1225.69 252.428 1221.13 255.392 1216.35C257.444 1213.39 258.584 1209.29 258.584 1205.64C258.812 1198.35 254.708 1191.97 248.779 1187.64C235.097 1177.38 216.855 1182.4 204.314 1192.42C195.42 1199.72 190.86 1209.74 183.563 1218.4C179.687 1223.19 173.986 1226.6 168.513 1222.27C168.057 1222.05 168.285 1221.59 168.741 1221.82C179.915 1227.74 187.439 1208.83 192.228 1202.45Z" fill="#596DE7"/>
<path d="M275.915 1233.21C275.23 1238.45 271.582 1243.69 267.705 1247.34C263.829 1250.53 257.672 1254.63 252.656 1253.04C251.972 1252.81 251.515 1251.9 252.2 1251.44C255.392 1248.48 260.409 1247.57 264.285 1245.06C269.074 1241.64 272.266 1237.54 275.686 1232.98C275.686 1232.98 275.915 1232.98 275.915 1233.21Z" fill="#596DE7"/>
<path d="M259.04 1279.01C262.689 1275.6 267.249 1273.32 270.898 1269.67C274.774 1265.57 278.195 1260.33 280.019 1254.86H280.247C279.563 1261.01 277.967 1266.48 274.09 1271.49C270.67 1275.82 265.653 1280.61 259.724 1280.84C258.812 1280.84 258.584 1279.7 259.04 1279.01Z" fill="#596DE7"/>
<path d="M169.653 1211.11C166.689 1218.17 162.356 1225.01 162.128 1232.76C162.128 1237.31 163.268 1242.33 166.461 1245.52C168.285 1247.79 171.021 1248.93 173.986 1249.39C175.05 1249.69 176.19 1249.69 177.406 1249.39C179.382 1249.24 180.903 1248.25 181.967 1246.43C176.95 1247.57 173.302 1240.73 178.318 1237.54C186.299 1232.53 189.036 1245.29 183.791 1250.07C176.722 1256.45 165.321 1251.44 161.444 1243.92C155.972 1232.98 161.9 1219.54 168.969 1210.88C169.197 1210.42 169.653 1210.88 169.653 1211.11Z" fill="#596DE7"/>
<path fill-rule="evenodd" clip-rule="evenodd" d="M166.917 1213.16C161.9 1219.31 156.2 1225.01 153.235 1232.53C148.903 1243.69 152.551 1249.39 159.164 1257.82C159.848 1258.73 159.392 1260.1 158.024 1259.87C149.815 1257.82 147.078 1248.02 147.763 1240.5C148.219 1237.54 149.131 1234.58 150.271 1231.84C147.991 1234.12 145.254 1236.17 143.202 1238.91C140.466 1242.78 139.097 1246.88 137.045 1250.98C137.273 1251.67 136.817 1252.35 135.905 1252.12C133.169 1251.9 130.432 1252.12 127.696 1252.81C125.188 1253.49 123.135 1255.09 120.627 1255.77C120.323 1256.07 120.095 1256.3 119.943 1256.45C119.259 1256.91 118.575 1255.77 119.031 1255.31C124.504 1249.85 130.888 1244.83 136.817 1239.59C142.062 1235.03 147.078 1230.25 153.007 1226.15C153.235 1226.15 153.463 1226.38 153.463 1226.6C157.112 1221.36 161.9 1216.81 166.689 1212.93C166.917 1212.7 167.145 1212.93 166.917 1213.16ZM135.905 1249.16C135.601 1249.47 135.297 1249.69 134.993 1249.85C135.297 1250 135.601 1250.07 135.905 1250.07C136.057 1249.77 136.133 1249.47 136.133 1249.16C135.981 1249.16 135.905 1249.16 135.905 1249.16ZM131.572 1250.07C131.268 1249.92 131.04 1249.69 130.888 1249.39C130.736 1249.69 130.508 1250 130.204 1250.3C130.66 1250.15 131.116 1250.07 131.572 1250.07ZM151.867 1228.2C152.171 1228.05 152.399 1227.97 152.551 1227.97C152.855 1227.51 153.083 1227.06 153.235 1226.6C152.779 1227.21 152.323 1227.74 151.867 1228.2Z" fill="#596DE7"/>
<path d="M262.233 1257.59L262.461 1257.82C256.076 1266.25 239.202 1275.14 229.169 1267.62C228.713 1267.16 228.941 1266.02 229.625 1265.8C234.869 1264.89 240.57 1266.02 246.043 1265.11C251.972 1264.2 257.216 1261.24 262.233 1257.59Z" fill="#596DE7"/>
<path d="M289.596 1260.33C285.492 1253.72 284.352 1245.97 286.632 1238.68C286.86 1238 287.772 1238 287.772 1238.68C287.544 1245.97 288.684 1253.04 293.245 1258.96C295.297 1261.47 297.805 1263.52 300.542 1265.34C302.366 1266.48 303.278 1266.71 304.418 1268.76C304.646 1269.21 304.418 1269.67 303.962 1269.67C298.261 1271.27 292.333 1264.43 289.596 1260.33Z" fill="#596DE7"/>
<path d="M283.211 1227.52C282.527 1238.23 279.563 1248.71 273.862 1257.82C263.601 1273.77 242.85 1284.94 223.924 1278.33C223.012 1278.1 223.24 1276.96 224.152 1276.96C259.724 1282.43 281.843 1252.13 280.931 1220.91C280.475 1219.54 280.095 1218.17 279.791 1216.81C279.791 1216.35 280.247 1216.12 280.703 1216.12C279.791 1209.29 277.967 1202.45 275.002 1196.07C266.109 1177.84 248.095 1168.5 227.8 1172.14C207.278 1175.79 192.912 1190.37 177.634 1202.91C177.406 1203.36 176.722 1202.91 177.178 1202.45C192 1186.04 211.838 1169.87 235.097 1168.95C254.708 1168.27 270.442 1180.12 277.967 1197.44C281.387 1205.18 282.983 1213.62 283.211 1222.05C288.912 1234.81 295.069 1248.71 309.435 1253.72C319.696 1257.37 333.15 1254.18 336.798 1242.78C338.394 1238 337.71 1232.07 333.834 1228.2C331.097 1225.62 327.905 1224.33 324.257 1224.33C318.936 1224.33 315.895 1226.83 315.135 1231.84C321.748 1224.78 329.045 1242.1 317.872 1240.96C311.031 1240.28 310.575 1232.07 313.767 1227.74C317.644 1222.5 325.397 1221.82 331.097 1224.1C349.112 1231.84 337.026 1255.32 321.748 1257.59C302.366 1260.33 289.824 1243.92 283.211 1227.52Z" fill="#596DE7"/>
<path d="M422.765 1253.72C419.8 1254.4 348.656 1243.24 348.656 1243.24L344.323 1254.4L422.765 1253.72Z" fill="#596DE7"/>
<path d="M173.074 1183.76C178.09 1179.89 182.651 1175.79 186.527 1170.78C188.58 1167.81 190.632 1164.85 192 1161.43C199.297 1149.36 203.401 1135.23 197.701 1121.33C190.176 1103.33 168.513 1097.86 151.183 1104.7C133.853 1111.53 119.715 1129.76 124.276 1148.9C128.152 1164.4 145.71 1174.88 160.532 1165.99C161.216 1165.54 160.76 1164.4 159.848 1164.62C142.29 1172.14 125.644 1159.16 125.872 1140.7C126.1 1123.38 141.834 1108.57 158.024 1104.92C177.862 1100.37 196.789 1112.9 198.157 1133.18C198.613 1139.56 197.473 1145.48 195.42 1151.18C196.028 1147.84 196.105 1144.5 195.648 1141.15C193.368 1123.15 173.758 1108.8 156.884 1120.19C151.639 1123.61 146.85 1130.9 149.131 1137.51C150.955 1142.52 158.48 1145.94 161.9 1140.24C164.181 1136.6 160.532 1130.67 155.971 1132.49C154.603 1133.18 153.691 1134.09 153.463 1135.46C149.359 1129.99 154.147 1124.29 158.936 1121.33C162.128 1119.51 166.005 1118.37 169.653 1118.14C177.178 1118.14 183.791 1122.01 188.123 1127.94C198.385 1141.61 193.368 1159.61 183.335 1171.69C175.81 1180.8 165.777 1185.13 156.884 1192.2C151.867 1196.07 148.675 1201.77 153.007 1207.23C153.235 1207.69 153.691 1207.46 153.463 1207.01C147.534 1195.84 166.689 1188.55 173.074 1183.76Z" fill="#596DE7"/>
<path d="M142.062 1101.05C136.589 1101.73 131.344 1105.38 127.696 1109.25C124.276 1112.9 120.171 1119.05 121.767 1124.29C121.995 1124.75 122.907 1125.2 123.363 1124.52C126.556 1121.33 127.468 1116.54 129.976 1112.67C133.397 1107.89 137.501 1104.92 142.062 1101.51C142.29 1101.28 142.29 1101.05 142.062 1101.05Z" fill="#596DE7"/>
<path d="M95.544 1117.68C99.1924 1114.27 101.245 1109.71 104.893 1106.06C109.226 1102.19 114.47 1098.77 119.943 1097.18C120.171 1097.18 120.171 1096.95 119.943 1096.95C113.786 1097.4 108.314 1099.23 103.069 1103.1C98.7364 1106.29 93.9478 1111.3 93.9478 1117C93.9478 1117.91 94.8599 1118.37 95.544 1117.68Z" fill="#596DE7"/>
<path d="M164.181 1206.32C157.112 1209.06 150.271 1213.39 142.29 1213.62C137.957 1213.62 132.941 1212.48 129.52 1209.29C127.24 1207.46 125.872 1204.73 125.644 1201.99C125.34 1200.78 125.34 1199.64 125.644 1198.58C125.644 1196.45 126.632 1194.93 128.608 1194.02C127.468 1199.03 134.309 1202.45 137.501 1197.44C142.518 1189.69 129.748 1186.96 124.96 1192.2C118.347 1199.26 123.363 1210.43 131.116 1214.07C142.062 1219.77 155.743 1213.84 164.637 1206.78C164.865 1206.55 164.637 1206.1 164.181 1206.32Z" fill="#596DE7"/>
<path fill-rule="evenodd" clip-rule="evenodd" d="M162.584 1209.06C158.48 1213.84 153.919 1218.63 148.675 1222.27C148.903 1222.05 149.131 1222.27 148.903 1222.5C145.026 1228.43 140.009 1233.44 135.449 1238.68C130.204 1244.61 125.188 1250.76 119.487 1256.23C119.031 1256.68 117.891 1256 118.575 1255.32C118.727 1255.01 118.879 1254.78 119.031 1254.63C119.715 1252.13 121.311 1250.07 121.995 1247.57C122.907 1244.83 122.907 1242.1 122.679 1239.36C122.679 1238.45 123.363 1238.23 124.048 1238.45C128.152 1236.4 132.257 1234.81 136.133 1232.3C138.869 1230.25 140.922 1227.74 143.202 1225.24C140.466 1226.38 137.501 1227.29 134.537 1227.74C126.784 1228.43 116.979 1225.69 114.926 1217.49C114.698 1216.35 116.066 1215.67 116.979 1216.35C125.416 1222.96 131.344 1226.6 142.518 1222.27C150.271 1219.54 155.971 1213.84 162.128 1208.83C162.356 1208.6 162.812 1208.83 162.584 1209.06ZM125.872 1239.14C125.568 1239.29 125.264 1239.36 124.96 1239.36C124.96 1239.67 124.96 1240.05 124.96 1240.5C125.264 1240.2 125.492 1239.9 125.644 1239.59C125.796 1239.44 125.872 1239.29 125.872 1239.14ZM124.732 1245.06C125.036 1244.91 125.264 1244.68 125.416 1244.38C125.112 1244.23 124.96 1244 124.96 1243.69C124.808 1244.15 124.732 1244.61 124.732 1245.06ZM148.447 1222.27C148.143 1222.58 147.762 1222.81 147.306 1222.96C147.154 1223.26 147.078 1223.49 147.078 1223.64C147.534 1223.19 147.99 1222.73 148.447 1222.27Z" fill="#596DE7"/>
<path d="M117.207 1114.72C117.435 1114.49 117.207 1114.27 116.979 1114.49C108.314 1120.87 99.4204 1137.51 107.173 1147.31C107.629 1147.76 108.77 1147.53 108.998 1146.85C109.91 1141.61 108.77 1136.14 109.682 1130.67C110.594 1124.75 113.558 1119.51 117.207 1114.72Z" fill="#596DE7"/>
<path d="M114.47 1087.61C121.083 1091.71 129.064 1092.85 136.589 1090.57C137.045 1090.34 137.045 1089.43 136.361 1089.43C129.064 1089.66 121.767 1088.52 115.838 1083.96C113.33 1081.91 111.278 1079.63 109.454 1076.9C108.314 1074.84 108.086 1074.16 106.033 1073.02C105.577 1072.79 105.121 1073.02 104.893 1073.48C103.297 1078.95 110.366 1084.87 114.47 1087.61Z" fill="#596DE7"/>
<path d="M147.762 1093.99C136.817 1094.44 126.1 1097.63 117.207 1103.1C101.017 1113.13 89.6152 1133.86 96.228 1152.55C96.4561 1153.46 97.5962 1153 97.5962 1152.32C92.1235 1117 122.907 1095.35 154.375 1096.26C155.743 1096.57 157.112 1096.95 158.48 1097.4C158.936 1097.4 159.392 1096.95 159.164 1096.49C166.233 1097.18 173.074 1099 179.458 1102.19C198.157 1110.85 207.506 1128.62 203.857 1148.67C200.209 1168.95 185.387 1183.31 172.618 1198.12C172.162 1198.58 172.618 1199.03 173.074 1198.8C189.72 1183.99 205.91 1164.4 206.822 1141.38C207.734 1122.01 195.648 1106.52 178.09 1099C170.337 1095.81 161.9 1093.99 153.235 1093.76C140.238 1088.29 126.328 1082.36 121.083 1068.01C117.663 1057.98 120.627 1044.54 132.257 1040.89C137.273 1039.53 143.202 1040.21 147.078 1043.85C149.663 1046.59 150.879 1049.78 150.727 1053.43C150.879 1058.74 148.447 1061.78 143.43 1062.54C150.499 1055.93 132.941 1048.64 134.081 1059.81C134.765 1066.41 142.974 1066.87 147.534 1063.68C152.779 1059.81 153.463 1052.29 150.955 1046.59C143.202 1028.82 119.715 1040.89 117.435 1055.93C114.47 1074.84 131.116 1087.38 147.762 1093.99Z" fill="#596DE7"/>
<path d="M121.083 956.127C120.399 958.861 131.8 1029.27 131.8 1029.27L120.399 1033.6L121.083 956.127Z" fill="#596DE7"/>
<path d="M124.048 1239.36C124.732 1238.45 125.416 1238.45 126.556 1238.45C127.012 1238.68 127.24 1239.59 126.784 1240.05C126.48 1240.35 126.176 1240.66 125.872 1240.96C125.72 1240.5 125.644 1240.05 125.644 1239.59C126.328 1240.05 127.468 1240.28 127.696 1241.19C127.696 1241.49 127.62 1241.64 127.468 1241.64C126.556 1242.33 125.416 1241.42 124.732 1241.19C124.048 1240.96 124.048 1240.05 124.504 1239.82C124.808 1239.36 125.188 1238.98 125.644 1238.68C125.796 1239.29 125.948 1239.82 126.1 1240.28C125.644 1240.28 125.416 1240.28 124.96 1240.28C124.504 1240.73 123.82 1240.05 124.048 1239.36Z" fill="#596DE7"/>
<path d="M125.416 1245.29C125.264 1245.44 125.036 1245.67 124.732 1245.97C124.048 1246.43 123.135 1245.74 123.591 1245.06C124.048 1244.15 124.96 1243.24 125.644 1242.33C126.1 1241.64 127.468 1242.33 127.012 1243.24C126.784 1243.92 126.556 1244.61 125.872 1244.83C125.568 1244.98 125.34 1244.91 125.188 1244.61C124.732 1244.15 125.188 1243.47 125.416 1242.78C125.872 1243.09 126.328 1243.39 126.784 1243.69C126.1 1244.38 125.416 1245.29 124.732 1245.97C124.428 1245.52 124.124 1245.14 123.819 1244.83C124.124 1244.53 124.428 1244.3 124.732 1244.15C125.188 1243.69 126.1 1244.61 125.416 1245.29Z" fill="#596DE7"/>
<path d="M129.064 1249.85C130.584 1249.39 132.105 1249.09 133.625 1248.93C133.625 1249.54 133.625 1250.07 133.625 1250.53C133.017 1250.68 132.409 1250.76 131.8 1250.76C131.8 1250.15 131.8 1249.62 131.8 1249.16C133.169 1249.16 134.461 1249.16 135.677 1249.16C135.373 1249.47 135.145 1249.69 134.993 1249.85C134.993 1249.39 134.993 1249.16 135.221 1248.93C135.449 1248.48 135.905 1248.48 136.133 1248.71C136.817 1248.93 136.361 1249.39 136.361 1250.07C136.361 1250.3 135.905 1250.53 135.677 1250.53C134.461 1250.53 133.169 1250.61 131.8 1250.76C130.66 1250.76 130.66 1249.16 131.8 1249.16C132.409 1249.01 133.017 1248.93 133.625 1248.93C134.765 1248.93 134.765 1250.53 133.625 1250.53C132.105 1250.68 130.584 1250.68 129.064 1250.53C128.608 1250.53 128.608 1249.85 129.064 1249.85Z" fill="#596DE7"/>
<path d="M149.815 1220.68C149.359 1222.05 148.447 1223.19 147.306 1224.55C146.622 1225.69 145.71 1226.83 144.342 1227.51C143.886 1227.74 143.658 1227.51 143.658 1227.06C143.886 1225.69 145.026 1224.55 145.938 1223.41C147.078 1222.27 147.991 1220.91 149.359 1220.22C149.587 1220 150.043 1220.22 149.815 1220.68Z" fill="#596DE7"/>
<path d="M163.953 1207.92C160.304 1213.39 155.059 1218.17 150.499 1222.96C145.71 1227.74 141.378 1232.98 135.905 1236.86C135.449 1237.09 134.993 1236.63 135.221 1236.17C138.869 1230.7 144.114 1226.15 148.903 1221.36C153.463 1216.58 158.252 1211.34 163.496 1207.46C163.953 1207.23 164.181 1207.69 163.953 1207.92Z" fill="#596DE7"/>
<path d="M168.969 1211.11C164.637 1217.49 158.708 1222.96 153.463 1228.43C147.534 1234.81 141.606 1241.41 134.993 1246.66C134.537 1247.11 133.853 1246.66 134.081 1246.2C138.869 1239.59 145.026 1233.67 150.727 1227.97C156.428 1222.05 161.9 1215.44 168.513 1210.65C168.969 1210.43 169.197 1210.88 168.969 1211.11Z" fill="#596DE7"/>
<path d="M164.181 1206.78C164.181 1206.93 164.257 1207.01 164.409 1207.01V1207.24C164.257 1207.24 164.181 1207.24 164.181 1207.24C163.953 1207.46 163.953 1206.78 164.181 1206.78Z" fill="#596DE7"/>
<path d="M164.637 1207.24C162.584 1210.88 158.936 1214.07 155.971 1217.03C153.007 1220.22 150.043 1223.87 146.394 1226.15C146.166 1226.38 145.938 1225.92 145.938 1225.69C148.219 1222.05 151.867 1219.08 154.831 1215.89C157.568 1212.93 160.532 1209.06 164.181 1207.01C164.409 1206.78 164.637 1207.01 164.637 1207.24Z" fill="#596DE7"/>
<path d="M192.228 163.608C196.105 168.621 200.437 173.179 205.454 177.053C208.418 179.103 211.61 180.926 214.803 182.521C227.116 189.585 241.482 193.459 255.392 187.99C273.634 180.471 279.335 159.279 272.266 142.189C265.425 125.099 246.955 110.971 227.573 115.529C211.839 119.175 201.121 136.492 210.242 151.304C210.698 151.987 211.839 151.532 211.611 150.62C204.086 133.302 217.311 116.896 235.782 116.896C253.34 117.124 268.39 132.847 272.038 149.025C276.599 168.394 264.057 187.079 243.534 188.446C237.15 188.902 230.993 187.762 225.292 185.711C228.637 186.319 232.057 186.395 235.553 185.939C253.568 183.661 268.162 164.292 256.76 147.658C253.112 142.645 245.815 137.632 239.202 139.91C234.185 141.733 230.537 149.253 236.466 152.671C240.114 154.95 246.043 151.304 244.219 146.746C243.534 145.379 242.394 144.696 241.254 144.468C246.727 140.366 252.428 145.151 255.392 149.709C257.444 152.899 258.584 156.772 258.584 160.418C258.812 167.71 254.708 174.318 248.779 178.42C235.097 188.674 216.855 183.889 204.314 173.635C195.42 166.343 190.86 156.317 183.563 147.658C179.687 142.873 173.986 139.682 168.513 143.784C168.057 144.012 168.285 144.696 168.741 144.468C179.915 138.543 187.439 157.228 192.228 163.608Z" fill="#596DE7"/>
<path d="M275.915 133.074C275.23 127.605 271.582 122.364 267.705 118.946C263.829 115.528 257.672 111.427 252.656 113.022C251.972 113.25 251.515 114.161 252.2 114.617C255.392 117.579 260.409 118.491 264.285 121.225C269.074 124.415 272.266 128.517 275.686 133.074H275.915Z" fill="#596DE7"/>
<path d="M259.04 87.0453C262.689 90.6911 267.249 92.7419 270.898 96.3878C274.774 100.489 278.195 105.73 280.019 111.199C280.019 111.427 280.247 111.427 280.247 111.199C279.563 105.047 277.967 99.5779 274.09 94.5648C270.67 90.2354 265.653 85.4502 259.724 85.4502C258.812 85.4502 258.584 86.5895 259.04 87.0453Z" fill="#596DE7"/>
<path d="M169.653 154.95C166.689 147.886 162.356 141.278 162.128 133.302C162.128 128.973 163.268 123.96 166.461 120.542C168.285 118.491 171.021 117.124 173.986 116.668C175.05 116.364 176.19 116.44 177.406 116.896C179.382 116.896 180.903 117.807 181.967 119.63C176.95 118.491 173.302 125.555 178.318 128.517C186.299 133.53 189.036 120.77 183.791 116.212C176.722 109.832 165.321 114.617 161.444 122.137C155.972 133.074 161.9 146.519 168.969 155.405C169.197 155.633 169.653 155.405 169.653 154.95Z" fill="#596DE7"/>
<path fill-rule="evenodd" clip-rule="evenodd" d="M166.689 153.354C161.9 149.253 157.112 144.695 153.463 139.454C153.463 139.682 153.235 140.138 153.007 139.91C147.078 136.036 142.062 131.023 136.817 126.466C130.888 121.225 124.504 116.44 119.031 110.743C118.575 110.287 119.259 109.148 119.943 109.832C120.095 109.984 120.323 110.136 120.627 110.287C123.135 110.971 125.188 112.566 127.696 113.25C130.432 113.933 133.169 114.161 135.905 113.933C136.817 113.933 137.273 114.617 137.045 115.301C139.097 119.174 140.466 123.504 143.202 127.15C145.254 129.884 147.991 131.935 150.271 134.213C149.131 131.479 148.219 128.517 147.763 125.555C147.078 118.035 149.815 108.237 158.024 106.414C159.392 105.958 159.848 107.325 159.164 108.237C152.551 116.668 148.903 122.364 153.235 133.53C156.2 141.049 161.9 146.746 166.917 152.898C167.145 153.126 166.917 153.354 166.689 153.354ZM136.133 117.123C136.133 116.82 136.057 116.516 135.905 116.212C135.601 116.212 135.297 116.212 134.993 116.212C135.297 116.364 135.601 116.592 135.905 116.896C135.905 116.896 135.981 116.972 136.133 117.123ZM130.204 115.984C130.508 116.136 130.736 116.364 130.888 116.668C131.04 116.364 131.268 116.136 131.572 115.984C131.116 115.984 130.66 115.984 130.204 115.984ZM153.235 139.454C153.083 138.999 152.855 138.543 152.551 138.087C152.399 138.087 152.171 138.011 151.867 137.859C152.323 138.467 152.779 138.999 153.235 139.454Z" fill="#596DE7"/>
<path d="M262.233 108.465C262.233 108.692 262.461 108.465 262.461 108.237C256.076 99.8056 239.202 90.9189 229.169 98.6663C228.713 99.122 228.941 100.261 229.625 100.261C234.869 101.173 240.57 100.033 246.043 100.945C251.972 102.084 257.216 104.819 262.233 108.465Z" fill="#596DE7"/>
<path d="M289.596 105.958C285.492 112.338 284.352 120.314 286.632 127.605C286.86 128.289 287.772 128.061 287.772 127.377C287.544 120.086 288.684 113.022 293.245 107.097C295.297 104.591 297.805 102.54 300.542 100.945C302.366 99.5778 303.278 99.3499 304.418 97.2991C304.646 97.0712 304.418 96.3876 303.962 96.3876C298.261 94.7926 292.333 101.856 289.596 105.958Z" fill="#596DE7"/>
<path d="M283.211 138.543C282.527 127.833 279.563 117.351 273.862 108.465C263.601 92.514 242.85 81.1207 223.924 87.7288C223.012 87.9567 223.24 89.096 224.152 89.096C259.724 83.6272 281.843 114.161 280.931 145.151C280.475 146.518 280.095 147.885 279.791 149.253C279.791 149.708 280.247 150.164 280.703 149.936C279.791 156.772 277.967 163.608 275.002 169.988C266.109 188.446 248.095 197.788 227.8 194.142C207.278 190.496 192.912 175.913 177.634 163.152C177.406 162.697 176.722 163.38 177.178 163.836C192 180.015 211.838 196.193 235.097 197.105C254.708 198.016 270.442 186.167 277.967 168.621C281.387 161.102 282.983 152.671 283.211 144.24C288.912 131.251 295.069 117.351 309.435 112.338C319.696 108.92 333.15 111.883 336.798 123.276C338.394 128.289 337.71 134.213 333.834 138.087C331.097 140.518 327.905 141.733 324.257 141.733C318.936 141.733 315.895 139.227 315.135 134.213C321.748 141.277 329.045 123.96 317.872 125.099C311.031 125.782 310.575 133.986 313.767 138.315C317.644 143.556 325.397 144.467 331.097 141.961C349.112 134.213 337.026 110.971 321.748 108.692C302.366 105.73 289.824 122.137 283.211 138.543Z" fill="#596DE7"/>
<path d="M422.765 112.339C419.8 111.655 348.656 122.821 348.656 122.821L344.323 111.655L422.765 112.339Z" fill="#596DE7"/>
<path d="M173.074 182.293C178.09 186.167 182.651 190.496 186.527 195.509C188.58 198.244 190.632 201.434 192 204.624C199.297 216.929 203.401 231.056 197.701 244.728C190.176 262.73 168.513 268.199 151.183 261.363C133.853 254.527 119.715 236.297 124.276 217.385C128.152 201.662 145.71 191.18 160.532 200.067C161.216 200.522 160.76 201.662 159.848 201.434C142.29 194.142 125.644 207.131 125.872 225.36C126.1 242.678 141.834 257.489 158.024 261.363C177.862 265.692 196.789 253.159 198.157 232.879C198.613 226.727 197.473 220.575 195.42 214.878C196.028 218.22 196.105 221.638 195.648 225.132C193.368 242.906 173.758 257.489 156.884 246.096C151.639 242.45 146.85 235.158 149.131 228.778C150.955 223.765 158.48 220.119 161.9 225.816C164.181 229.689 160.532 235.386 155.971 233.563C154.603 233.107 153.691 231.968 153.463 230.829C149.359 236.297 154.147 241.994 158.936 244.728C162.128 246.779 166.005 247.919 169.653 247.919C177.178 248.146 183.791 244.045 188.123 238.348C198.385 224.676 193.368 206.675 183.335 194.37C175.81 185.483 165.777 180.926 156.884 173.862C151.867 169.988 148.675 164.292 153.007 158.823C153.235 158.595 153.691 158.823 153.463 159.051C147.534 170.216 166.689 177.508 173.074 182.293Z" fill="#596DE7"/>
<path d="M142.062 265.009C136.589 264.325 131.344 260.68 127.696 256.806C124.276 253.16 120.171 247.008 121.767 241.995C121.995 241.311 122.907 241.083 123.363 241.539C126.556 244.729 127.468 249.742 129.976 253.388C133.397 258.173 137.501 261.363 142.062 264.781C142.29 264.781 142.29 265.009 142.062 265.009Z" fill="#596DE7"/>
<path d="M95.544 248.374C99.1924 251.792 101.245 256.577 104.893 259.995C109.226 263.869 114.47 267.287 119.943 268.882C120.171 269.11 120.171 269.338 119.943 269.338C113.786 268.654 108.314 267.059 103.069 263.185C98.7364 259.767 93.9478 254.754 93.9478 249.058C93.9478 248.146 94.8599 247.69 95.544 248.374Z" fill="#596DE7"/>
<path d="M164.181 159.963C157.112 157.001 150.271 152.671 142.29 152.671C137.957 152.671 132.941 153.81 129.52 156.773C127.24 158.823 125.872 161.33 125.644 164.292C125.34 165.356 125.34 166.419 125.644 167.482C125.644 169.609 126.632 171.204 128.608 172.268C127.468 167.255 134.309 163.609 137.501 168.622C142.518 176.369 129.748 179.104 124.96 174.09C118.347 167.027 123.363 155.861 131.116 151.987C142.062 146.519 155.743 152.215 164.637 159.279C164.865 159.507 164.637 159.963 164.181 159.963Z" fill="#596DE7"/>
<path fill-rule="evenodd" clip-rule="evenodd" d="M162.128 157.455C155.971 152.215 150.271 146.746 142.518 143.783C131.344 139.454 125.416 143.1 116.979 149.708C116.066 150.392 114.698 149.708 114.926 148.569C116.979 140.365 126.784 137.631 134.537 138.543C137.501 138.77 140.466 139.682 143.202 141.049C140.922 138.543 138.869 135.808 136.133 133.985C132.257 131.251 128.152 129.884 124.048 127.833C123.363 127.833 122.679 127.605 122.679 126.694C122.907 123.959 122.907 121.225 121.995 118.49C121.311 115.984 119.715 113.933 119.031 111.654C119.031 111.654 119.031 111.578 119.031 111.426C118.879 111.275 118.727 111.047 118.575 110.743C117.891 110.287 119.031 109.376 119.487 110.059C125.188 115.528 130.204 121.68 135.449 127.377C140.009 132.618 145.026 137.859 148.903 143.556C149.131 143.783 148.903 144.011 148.675 144.011C153.919 147.429 158.48 152.442 162.584 157C162.812 157.228 162.356 157.455 162.128 157.455ZM125.644 126.694C125.492 126.39 125.264 126.086 124.96 125.782C124.96 126.086 124.96 126.39 124.96 126.694C125.264 126.845 125.568 126.921 125.872 126.921C125.872 126.769 125.796 126.694 125.644 126.694ZM124.96 122.364C124.96 122.06 125.112 121.832 125.416 121.68C125.264 121.529 125.036 121.301 124.732 120.997C124.732 121.453 124.808 121.908 124.96 122.364ZM147.078 142.416C147.078 142.72 147.154 142.948 147.306 143.1C147.762 143.404 148.143 143.708 148.447 144.011C147.99 143.404 147.534 142.872 147.078 142.416Z" fill="#596DE7"/>
<path d="M117.207 251.337C117.435 251.564 117.207 251.792 116.979 251.564C108.314 245.412 99.4204 228.778 107.173 218.752C107.629 218.296 108.77 218.524 108.998 219.207C109.91 224.448 108.77 229.917 109.682 235.386C110.594 241.538 113.558 246.551 117.207 251.337Z" fill="#596DE7"/>
<path d="M114.47 278.681C121.083 274.351 129.064 273.212 136.589 275.491C137.045 275.719 137.045 276.858 136.361 276.858C129.064 276.402 121.767 277.541 115.838 282.099C113.33 284.15 111.278 286.656 109.454 289.391C108.314 291.213 108.086 292.125 106.033 293.036C105.577 293.264 105.121 293.036 104.893 292.581C103.297 287.112 110.366 281.187 114.47 278.681Z" fill="#596DE7"/>
<path d="M147.762 272.3C136.817 271.617 126.1 268.654 117.207 262.958C101.017 252.932 89.6152 232.196 96.228 213.511C96.4561 212.599 97.5962 213.055 97.5962 213.966C92.1235 249.058 122.907 270.705 154.375 270.021C155.743 269.566 157.112 269.186 158.48 268.882C158.936 268.654 159.392 269.338 159.164 269.566C166.233 268.882 173.074 267.059 179.458 264.097C198.157 255.21 207.506 237.437 203.857 217.384C200.209 197.104 185.387 182.977 172.618 167.937C172.162 167.482 172.618 167.026 173.074 167.482C189.72 182.065 205.91 201.662 206.822 224.676C207.734 244.045 195.648 259.768 178.09 267.059C170.337 270.477 161.9 272.072 153.235 272.3C140.238 277.769 126.328 283.921 121.083 298.049C117.663 308.303 120.627 321.519 132.257 325.165C137.273 326.76 143.202 326.077 147.078 322.203C149.663 319.468 150.879 316.278 150.727 312.632C150.879 307.467 148.447 304.505 143.43 303.746C150.499 310.354 132.941 317.418 134.081 306.48C134.765 299.644 142.974 299.188 147.534 302.378C152.779 306.252 153.463 314 150.955 319.468C143.202 337.242 119.715 325.393 117.435 310.354C114.47 291.213 131.116 278.68 147.762 272.3Z" fill="#596DE7"/>
<path d="M121.083 409.931C120.399 407.197 131.8 336.786 131.8 336.786L120.399 332.685L121.083 409.931Z" fill="#596DE7"/>
<path d="M124.048 126.694C124.732 127.606 125.416 127.834 126.556 127.606C127.012 127.378 127.24 126.467 126.784 126.239C126.48 125.783 126.176 125.403 125.872 125.099C125.72 125.555 125.644 126.011 125.644 126.467C126.328 126.239 127.468 126.011 127.696 124.871C127.696 124.72 127.62 124.568 127.468 124.416C126.556 123.732 125.416 124.644 124.732 125.099C124.048 125.327 124.048 126.011 124.504 126.467C124.808 126.77 125.188 127.074 125.644 127.378C125.796 126.922 125.948 126.467 126.1 126.011C125.644 126.011 125.416 125.783 124.96 125.783C124.504 125.555 123.82 126.011 124.048 126.694Z" fill="#596DE7"/>
<path d="M125.416 120.997C125.264 120.693 125.036 120.465 124.732 120.313C124.048 119.63 123.135 120.313 123.591 120.997C124.048 122.136 124.96 123.048 125.644 123.731C126.1 124.415 127.468 123.731 127.012 123.048C126.784 122.136 126.556 121.453 125.872 121.225C125.568 121.225 125.34 121.301 125.188 121.453C124.732 122.136 125.188 122.82 125.416 123.504C125.872 123.2 126.328 122.896 126.784 122.592C126.1 121.681 125.416 120.769 124.732 120.313C124.428 120.617 124.124 120.997 123.819 121.453C124.124 121.605 124.428 121.757 124.732 121.908C125.188 122.364 126.1 121.453 125.416 120.997Z" fill="#596DE7"/>
<path d="M129.064 116.44C130.584 116.744 132.105 116.972 133.625 117.124C133.625 116.668 133.625 116.137 133.625 115.529C133.017 115.529 132.409 115.529 131.8 115.529C131.8 115.985 131.8 116.516 131.8 117.124C133.169 117.124 134.461 117.048 135.677 116.896C135.373 116.744 135.145 116.516 134.993 116.213C134.993 116.668 134.993 116.896 135.221 117.352C135.449 117.58 135.905 117.808 136.133 117.58C136.817 117.124 136.361 116.668 136.361 116.213C136.361 115.757 135.905 115.529 135.677 115.529C134.461 115.529 133.169 115.529 131.8 115.529C130.66 115.529 130.66 117.124 131.8 117.124C132.409 117.124 133.017 117.124 133.625 117.124C134.765 117.124 134.765 115.529 133.625 115.529C132.105 115.377 130.584 115.377 129.064 115.529C128.608 115.529 128.608 116.213 129.064 116.44Z" fill="#596DE7"/>
<path d="M149.815 145.607C149.359 144.012 148.447 142.872 147.306 141.733C146.622 140.594 145.71 139.227 144.342 138.543C143.886 138.315 143.658 138.771 143.658 139.227C143.886 140.594 145.026 141.733 145.938 142.645C147.078 144.012 147.991 145.151 149.359 146.063C149.587 146.063 150.043 145.835 149.815 145.607Z" fill="#596DE7"/>
<path d="M163.953 158.139C160.304 152.67 155.059 148.113 150.499 143.328C145.71 138.543 141.378 133.074 135.905 129.2C135.449 128.972 134.993 129.428 135.221 129.884C138.869 135.581 144.114 140.138 148.903 144.923C153.463 149.48 158.252 154.949 163.496 158.595C163.953 158.823 164.181 158.595 163.953 158.139Z" fill="#596DE7"/>
<path d="M168.969 154.949C164.637 148.569 158.708 143.1 153.463 137.631C147.534 131.479 141.606 124.643 134.993 119.402C134.537 119.174 133.853 119.402 134.081 120.085C138.869 126.694 145.026 132.39 150.727 138.315C156.428 144.011 161.9 150.62 168.513 155.405C168.969 155.633 169.197 155.177 168.969 154.949Z" fill="#596DE7"/>
<path d="M164.181 159.279C164.181 159.279 164.257 159.279 164.409 159.279C164.409 159.051 164.409 159.051 164.409 159.051C164.257 158.899 164.181 158.823 164.181 158.823C163.953 158.823 163.953 159.279 164.181 159.279Z" fill="#596DE7"/>
<path d="M164.637 158.823C162.584 155.177 158.936 151.987 155.971 149.025C153.007 146.063 150.043 142.417 146.394 139.91C146.166 139.91 145.938 140.138 145.938 140.366C148.219 144.24 151.867 147.202 154.831 150.164C157.568 153.126 160.532 157.228 164.181 159.279C164.409 159.279 164.637 159.051 164.637 158.823Z" fill="#596DE7"/>
<path d="M1746.7 163.836C1742.82 168.849 1738.49 173.406 1733.47 177.052C1730.51 179.331 1727.32 181.154 1724.12 182.521C1711.81 189.812 1697.44 193.686 1683.53 187.99C1665.29 180.698 1659.59 159.278 1666.66 142.188C1673.5 125.099 1691.97 111.199 1711.35 115.756C1727.09 119.402 1737.81 136.72 1728.68 151.303C1728.23 151.987 1727.09 151.531 1727.32 150.847C1734.84 133.302 1721.62 116.895 1703.14 117.123C1685.59 117.351 1670.54 132.846 1666.66 149.024C1662.1 168.621 1674.87 187.306 1695.39 188.673C1701.78 189.129 1707.93 187.99 1713.63 185.711C1710.29 186.319 1706.87 186.47 1703.37 186.167C1685.36 183.888 1670.76 164.519 1682.17 147.885C1685.81 142.644 1693.11 137.859 1699.72 140.138C1704.74 141.961 1708.39 149.48 1702.46 152.898C1698.81 154.949 1692.88 151.531 1694.71 146.974C1695.39 145.606 1696.53 144.695 1697.67 144.467C1692.2 140.593 1686.27 145.151 1683.53 149.936C1681.48 152.898 1680.34 156.772 1680.34 160.646C1680.11 167.937 1684.22 174.318 1689.92 178.647C1703.83 188.901 1722.07 183.888 1734.38 173.862C1743.51 166.342 1748.07 156.544 1755.14 147.885C1759.24 142.872 1764.94 139.682 1770.41 144.011C1770.87 144.239 1770.41 144.695 1770.19 144.467C1759.01 138.543 1751.49 157.455 1746.7 163.836Z" fill="#596DE7"/>
<path d="M1663.01 133.075C1663.7 127.834 1667.34 122.365 1671.22 118.947C1675.1 115.757 1681.25 111.655 1686.27 113.25C1686.95 113.478 1687.41 114.162 1686.73 114.845C1683.31 117.808 1678.52 118.719 1674.64 121.226C1669.85 124.644 1666.66 128.745 1663.24 133.075C1663.24 133.303 1663.01 133.303 1663.01 133.075Z" fill="#596DE7"/>
<path d="M1679.89 87.2731C1676.24 90.6911 1671.68 92.9698 1668.03 96.6156C1664.15 100.717 1660.73 105.958 1658.91 111.427C1658.91 111.427 1658.68 111.427 1658.68 111.199C1659.36 105.047 1660.96 99.8058 1664.84 94.7927C1668.26 90.4632 1673.27 85.6781 1679.2 85.4502C1679.89 85.4502 1680.34 86.5895 1679.89 87.2731Z" fill="#596DE7"/>
<path d="M1769.27 155.177C1772.24 148.113 1776.57 141.277 1776.8 133.53C1776.8 128.973 1775.66 123.96 1772.47 120.769C1770.64 118.491 1767.9 117.124 1764.94 116.896C1763.88 116.592 1762.74 116.592 1761.52 116.896C1759.54 116.896 1758.02 117.883 1756.96 119.858C1761.98 118.719 1765.4 125.555 1760.61 128.745C1752.63 133.53 1749.89 120.997 1755.14 116.212C1762.2 109.832 1773.61 114.845 1777.48 122.365C1782.95 133.302 1777.03 146.746 1769.96 155.405C1769.73 155.861 1769.27 155.405 1769.27 155.177Z" fill="#596DE7"/>
<path fill-rule="evenodd" clip-rule="evenodd" d="M1772.01 153.127C1777.03 146.974 1782.73 141.278 1785.69 133.758C1790.02 122.592 1786.38 116.668 1779.76 108.237C1779.08 107.553 1779.53 106.186 1780.9 106.414C1789.11 108.237 1791.85 118.263 1790.94 125.783C1790.71 128.745 1789.8 131.707 1788.66 134.214C1790.94 132.163 1793.67 130.112 1795.72 127.378C1798.46 123.504 1799.83 119.402 1801.88 115.301C1801.65 114.617 1802.11 113.934 1802.79 113.934C1805.76 114.389 1808.49 114.161 1811.23 113.478C1813.74 112.794 1815.79 111.199 1818.3 110.516C1818.6 110.212 1818.83 109.984 1818.98 109.832C1819.67 109.376 1820.35 110.288 1819.9 110.971C1814.42 116.44 1808.04 121.453 1802.11 126.694C1796.86 131.251 1791.62 136.037 1785.92 140.138C1785.69 140.138 1785.24 139.91 1785.46 139.682C1781.81 144.923 1777.03 149.481 1772.24 153.354C1772.01 153.582 1771.78 153.354 1772.01 153.127ZM1803.02 116.896C1803.33 116.744 1803.63 116.516 1803.93 116.212C1803.63 116.212 1803.25 116.212 1802.79 116.212C1802.79 116.516 1802.79 116.82 1802.79 117.124C1802.79 117.124 1802.87 117.048 1803.02 116.896ZM1807.35 116.212C1807.66 116.364 1807.89 116.592 1808.04 116.896C1808.19 116.592 1808.42 116.288 1808.72 115.984C1808.27 116.136 1807.81 116.212 1807.35 116.212ZM1787.06 138.087C1786.76 138.087 1786.53 138.163 1786.38 138.315C1786.07 138.771 1785.77 139.151 1785.46 139.455C1785.92 138.999 1786.45 138.543 1787.06 138.087Z" fill="#596DE7"/>
<path d="M1676.69 108.692L1676.47 108.464C1682.85 99.8054 1699.72 91.1465 1709.76 98.6661C1710.21 99.1218 1709.99 100.261 1709.3 100.489C1703.83 101.4 1698.36 100.261 1692.88 101.173C1686.73 102.084 1681.71 105.046 1676.69 108.692Z" fill="#596DE7"/>
<path d="M1649.33 105.958C1653.43 112.338 1654.57 120.314 1652.29 127.605C1652.07 128.289 1650.93 128.289 1651.15 127.605C1651.38 120.314 1650.24 113.25 1645.68 107.325C1643.63 104.819 1641.12 102.768 1638.38 100.945C1636.56 99.8056 1635.65 99.5778 1634.51 97.527C1634.28 97.0712 1634.51 96.6155 1634.96 96.3876C1640.67 94.7926 1646.59 101.856 1649.33 105.958Z" fill="#596DE7"/>
<path d="M1655.71 138.771C1656.17 128.061 1659.36 117.351 1665.06 108.464C1675.33 92.5138 1696.08 81.3484 1715 87.9565C1715.91 88.1843 1715.69 89.3237 1714.77 89.0958C1678.97 83.8549 1657.08 114.161 1658 145.379C1658.45 146.746 1658.83 148.113 1659.14 149.48C1659.14 149.936 1658.68 150.164 1658.22 150.164C1658.91 157 1660.96 163.836 1663.92 170.216C1672.82 188.445 1690.83 197.788 1711.13 194.142C1731.65 190.496 1746.01 175.913 1761.29 163.38C1761.52 162.924 1762.2 163.38 1761.75 163.836C1746.93 180.242 1727.09 196.193 1703.83 197.332C1684.22 198.016 1668.26 186.167 1660.73 168.849C1657.54 161.102 1655.71 152.67 1655.71 144.239C1650.01 131.251 1643.86 117.579 1629.49 112.566C1619.23 108.92 1605.78 112.11 1602.13 123.504C1600.53 128.289 1601.22 134.213 1605.09 138.087C1607.83 140.67 1611.02 141.885 1614.67 141.733C1619.99 141.885 1623.03 139.454 1623.79 134.441C1617.18 141.505 1609.88 124.187 1621.05 125.099C1627.9 125.782 1628.35 133.985 1625.16 138.543C1621.28 143.784 1613.53 144.467 1607.83 141.961C1589.81 134.213 1601.9 110.971 1617.18 108.692C1636.33 105.958 1649.1 122.364 1655.71 138.771Z" fill="#596DE7"/>
<path d="M1516.16 112.567C1519.13 111.883 1590.27 123.049 1590.27 123.049L1594.6 111.655L1516.16 112.567Z" fill="#596DE7"/>
<path d="M1765.85 182.521C1760.84 186.395 1756.28 190.497 1752.4 195.51C1750.35 198.472 1748.29 201.434 1746.93 204.852C1739.63 216.929 1735.52 231.057 1741.23 244.957C1748.75 262.958 1770.41 268.427 1787.74 261.591C1805.07 254.755 1819.21 236.526 1814.65 217.385C1810.77 201.89 1793.22 191.408 1778.39 200.295C1777.71 200.523 1778.17 201.89 1779.08 201.662C1796.64 194.143 1813.28 207.131 1813.05 225.588C1812.83 242.906 1797.09 257.717 1780.67 261.363C1761.06 265.92 1742.14 253.388 1740.77 233.108C1740.31 226.727 1741.45 220.803 1743.51 215.106C1742.9 218.448 1742.82 221.79 1743.28 225.132C1745.56 243.134 1765.17 257.489 1782.04 246.096C1787.29 242.678 1792.08 235.386 1789.8 228.778C1787.97 223.765 1780.45 220.347 1777.03 226.044C1774.75 229.69 1778.39 235.614 1782.95 233.791C1784.32 233.108 1785.24 232.196 1785.46 230.829C1789.34 236.298 1784.55 241.994 1779.99 244.957C1776.8 246.78 1772.92 247.919 1769.05 248.147C1761.75 248.147 1755.14 244.273 1750.8 238.349C1740.54 224.677 1745.33 206.675 1755.59 194.37C1763.12 185.484 1773.15 181.154 1782.04 174.09C1786.83 170.217 1790.25 164.52 1785.92 159.051C1785.69 158.595 1785.24 158.823 1785.46 159.279C1791.39 170.444 1772.24 177.736 1765.85 182.521Z" fill="#596DE7"/>
<path d="M1796.86 265.237C1802.34 264.553 1807.58 260.907 1811.23 257.034C1814.42 253.16 1818.76 247.236 1817.16 241.995C1816.93 241.311 1816.02 241.083 1815.56 241.539C1812.37 244.957 1811.46 249.742 1808.95 253.616C1805.53 258.401 1801.42 261.363 1796.86 264.781C1796.64 265.009 1796.64 265.237 1796.86 265.237Z" fill="#596DE7"/>
<path d="M1843.38 248.603C1839.73 252.021 1837.68 256.578 1833.81 260.224C1829.7 264.097 1824.46 267.288 1818.98 269.111C1818.76 269.111 1818.76 269.338 1818.98 269.338C1825.14 268.883 1830.61 267.06 1835.63 263.186C1840.19 259.996 1844.98 254.983 1844.98 249.286C1844.98 248.375 1844.07 247.919 1843.38 248.603Z" fill="#596DE7"/>
<path d="M1774.75 159.962C1781.81 157.228 1788.66 152.898 1796.64 152.67C1800.97 152.67 1805.99 153.81 1809.41 157C1811.69 158.823 1813.05 161.557 1813.28 164.292C1813.59 165.507 1813.59 166.646 1813.28 167.71C1813.28 169.836 1812.29 171.355 1810.32 172.267C1811.46 167.254 1804.39 163.836 1801.43 168.849C1796.41 176.596 1809.18 179.331 1813.97 174.09C1820.35 167.026 1815.56 155.861 1807.81 151.987C1796.86 146.518 1783.18 152.443 1774.29 159.506C1774.06 159.734 1774.29 160.19 1774.75 159.962Z" fill="#596DE7"/>
<path fill-rule="evenodd" clip-rule="evenodd" d="M1776.34 157.228C1780.45 152.443 1785.01 147.658 1790.25 144.012C1790.02 144.24 1789.8 144.012 1789.8 143.784C1793.9 137.859 1798.92 132.846 1803.48 127.605C1808.72 121.681 1813.74 115.528 1819.44 110.06C1819.9 109.604 1820.81 110.288 1820.35 110.971C1820.2 111.123 1820.05 111.351 1819.9 111.655C1819.21 114.161 1817.62 116.212 1816.93 118.719C1816.02 121.225 1816.02 124.187 1816.25 126.922C1816.25 127.833 1815.56 128.061 1814.88 127.833C1810.77 129.884 1806.67 131.251 1802.79 133.986C1800.06 136.036 1798 138.543 1795.72 141.049C1798.46 139.91 1801.43 138.999 1804.39 138.543C1811.91 137.859 1821.95 140.366 1824 148.797C1824.23 149.936 1822.86 150.392 1821.95 149.708C1813.51 143.328 1807.58 139.682 1796.41 143.784C1788.66 146.746 1782.95 152.443 1776.57 157.456C1776.57 157.684 1776.11 157.456 1776.34 157.228ZM1813.05 127.15C1813.36 126.998 1813.66 126.922 1813.97 126.922C1813.97 126.618 1813.97 126.238 1813.97 125.782C1813.66 126.086 1813.43 126.39 1813.28 126.694C1813.13 126.846 1813.05 126.998 1813.05 127.15ZM1814.19 121.225C1813.89 121.377 1813.59 121.605 1813.28 121.909C1813.59 122.061 1813.81 122.288 1813.97 122.592C1813.97 122.137 1814.04 121.681 1814.19 121.225ZM1790.48 144.012C1790.78 143.708 1791.16 143.48 1791.62 143.328C1791.77 143.024 1791.85 142.796 1791.85 142.645C1791.39 143.1 1790.94 143.556 1790.48 144.012Z" fill="#596DE7"/>
<path d="M1821.72 251.565C1821.49 251.565 1821.72 251.792 1821.95 251.792C1830.61 245.412 1839.51 228.778 1831.75 218.98C1831.3 218.296 1830.16 218.752 1829.93 219.435C1829.02 224.676 1830.16 230.145 1829.24 235.614C1828.1 241.539 1825.37 246.779 1821.72 251.565Z" fill="#596DE7"/>
<path d="M1824.23 278.681C1817.84 274.579 1809.86 273.44 1802.34 275.718C1801.65 275.946 1801.88 276.858 1802.57 276.858C1809.86 276.63 1817.16 277.769 1823.09 282.326C1825.6 284.377 1827.65 286.656 1829.47 289.39C1830.61 291.213 1830.84 292.125 1832.89 293.264C1833.35 293.492 1833.81 293.264 1834.03 292.808C1835.63 287.339 1828.56 281.415 1824.23 278.681Z" fill="#596DE7"/>
<path d="M1791.16 272.301C1802.11 271.845 1812.83 268.655 1821.72 262.958C1837.91 252.932 1849.31 232.424 1842.7 213.739C1842.47 212.828 1841.1 213.056 1841.33 213.967C1846.8 249.286 1816.02 270.934 1784.55 270.022C1783.18 269.718 1781.81 269.339 1780.45 268.883C1779.99 268.883 1779.53 269.339 1779.76 269.794C1772.69 269.111 1765.85 267.288 1759.24 264.098C1740.77 255.439 1731.42 237.665 1735.07 217.613C1738.72 197.333 1753.54 182.977 1766.31 168.166C1766.76 167.71 1766.08 167.255 1765.85 167.482C1749.21 182.294 1733.02 201.89 1731.88 224.905C1731.19 244.273 1743.05 259.768 1760.84 267.288C1768.59 270.478 1777.03 272.301 1785.69 272.529C1798.69 277.998 1812.6 283.922 1817.84 298.278C1821.26 308.304 1818.07 321.748 1806.67 325.166C1801.65 326.761 1795.72 326.077 1791.85 322.431C1789.26 319.697 1787.97 316.507 1787.97 312.861C1787.97 307.544 1790.48 304.506 1795.5 303.746C1788.43 310.355 1805.99 317.646 1804.85 306.481C1804.16 299.873 1795.95 299.417 1791.39 302.607C1786.15 306.481 1785.46 314 1787.74 319.697C1795.72 337.471 1819.21 325.394 1821.49 310.355C1824.46 291.442 1807.81 278.681 1791.16 272.301Z" fill="#596DE7"/>
<path d="M1817.84 410.159C1818.53 407.425 1807.13 336.786 1807.13 336.786L1818.53 332.685L1817.84 410.159Z" fill="#596DE7"/>
<path d="M1814.65 126.694C1814.19 127.605 1813.51 127.833 1812.37 127.833C1811.69 127.605 1811.69 126.694 1812.14 126.238C1812.45 125.934 1812.75 125.63 1813.05 125.326C1813.21 125.782 1813.28 126.238 1813.28 126.694C1812.37 126.238 1811.23 126.01 1811.23 124.871C1811.23 124.719 1811.31 124.567 1811.46 124.415C1812.37 123.959 1813.51 124.643 1814.19 125.099C1814.65 125.326 1814.88 126.238 1814.42 126.466C1814.12 126.77 1813.74 127.149 1813.28 127.605C1813.13 126.997 1812.98 126.466 1812.83 126.01C1813.28 126.01 1813.51 126.01 1813.74 125.782C1814.42 125.554 1815.11 126.238 1814.65 126.694Z" fill="#596DE7"/>
<path d="M1813.51 120.997C1813.66 120.845 1813.89 120.617 1814.19 120.313C1814.88 119.63 1815.79 120.541 1815.33 121.225C1814.88 122.136 1813.97 123.048 1813.28 123.959C1812.83 124.643 1811.46 123.959 1811.69 123.048C1811.91 122.364 1812.37 121.453 1813.05 121.225C1813.36 121.225 1813.59 121.301 1813.74 121.453C1813.97 122.136 1813.74 122.82 1813.51 123.504C1813.05 123.2 1812.52 122.896 1811.91 122.592C1812.83 121.908 1813.28 120.997 1814.19 120.313C1814.5 120.769 1814.8 121.149 1815.11 121.453C1814.8 121.757 1814.5 121.984 1814.19 122.136C1813.51 122.592 1812.83 121.681 1813.51 120.997Z" fill="#596DE7"/>
<path d="M1809.86 116.44C1808.34 116.896 1806.82 117.199 1805.3 117.351C1805.3 116.744 1805.3 116.136 1805.3 115.528C1805.91 115.528 1806.52 115.528 1807.13 115.528C1807.13 116.136 1807.13 116.668 1807.13 117.123C1805.76 117.123 1804.47 117.123 1803.25 117.123C1803.4 116.82 1803.63 116.592 1803.93 116.44C1803.93 116.896 1803.93 117.123 1803.71 117.351C1803.48 117.807 1803.02 117.807 1802.57 117.579C1802.11 117.351 1802.57 116.896 1802.57 116.212C1802.57 115.984 1803.02 115.756 1803.25 115.756C1804.47 115.756 1805.76 115.68 1807.13 115.528C1808.04 115.528 1808.04 117.123 1807.13 117.123C1806.52 117.275 1805.91 117.351 1805.3 117.351C1804.16 117.351 1804.16 115.756 1805.3 115.528C1806.82 115.528 1808.34 115.528 1809.86 115.528C1810.32 115.756 1810.32 116.44 1809.86 116.44Z" fill="#596DE7"/>
<path d="M1789.11 145.607C1789.57 144.24 1790.48 143.1 1791.39 141.733C1792.3 140.594 1793.22 139.227 1794.58 138.771C1794.81 138.543 1795.27 138.771 1795.27 139.227C1794.81 140.594 1793.67 141.733 1792.76 142.873C1791.85 144.012 1790.94 145.379 1789.57 146.063C1789.34 146.291 1788.88 146.063 1789.11 145.607Z" fill="#596DE7"/>
<path d="M1774.97 158.368C1778.62 152.899 1783.87 148.114 1788.43 143.329C1792.99 138.543 1797.55 133.302 1803.02 129.429C1803.48 129.201 1803.93 129.657 1803.71 130.112C1800.06 135.581 1794.81 140.138 1790.02 144.924C1785.46 149.709 1780.67 154.95 1775.43 158.823C1774.97 159.051 1774.75 158.596 1774.97 158.368Z" fill="#596DE7"/>
<path d="M1769.96 155.177C1774.29 148.797 1780.22 143.328 1785.46 137.632C1791.39 131.479 1797.09 124.871 1803.93 119.63C1804.39 119.174 1805.07 119.63 1804.85 120.086C1800.06 126.694 1793.67 132.391 1787.97 138.315C1782.5 144.24 1777.03 150.62 1770.41 155.633C1769.96 155.861 1769.73 155.405 1769.96 155.177Z" fill="#596DE7"/>
<path d="M1774.75 159.279C1774.59 159.279 1774.52 159.279 1774.52 159.279V159.051C1774.52 159.051 1774.59 159.051 1774.75 159.051C1774.97 158.823 1774.97 159.507 1774.75 159.279Z" fill="#596DE7"/>
<path d="M1774.29 159.051C1776.34 155.177 1779.99 152.215 1782.95 149.253C1785.92 146.063 1788.88 142.417 1792.53 140.138C1792.76 139.91 1792.99 140.366 1792.99 140.594C1790.71 144.24 1787.06 147.202 1784.09 150.392C1781.36 153.355 1778.39 157.228 1774.52 159.279C1774.52 159.507 1774.29 159.279 1774.29 159.051Z" fill="#596DE7"/>
</g>
</svg>
