<svg width="28" height="28" viewBox="0 0 28 28" fill="none" xmlns="http://www.w3.org/2000/svg">
<path d="M11.9774 25.805C10.9965 25.7617 10.0028 25.6408 9.06431 25.3577C8.25611 25.0939 7.95543 24.5791 7.92547 23.7252C7.93174 21.0254 7.29136 18.1385 8.06947 15.5152C8.45928 14.4493 9.62892 14.652 10.5486 14.5909C13.2697 14.4525 15.9869 14.5389 18.7096 14.588C16.0385 13.029 13.3336 11.5215 10.6217 10.0316C8.95713 9.14173 10.1647 7.16487 10.8016 5.97073C11.6926 4.53037 13.8302 6.35699 14.9013 6.82132C14.9805 2.03177 21.0215 2.52235 20.1326 9.0797C24.3087 3.9169 29.0902 9.75619 24.6058 12.6128C25.4718 13.3485 27.3425 13.8902 26.6943 15.3356C26.4007 16.0258 26.0291 16.6905 25.6697 17.3483C25.5163 17.7492 25.1361 17.873 24.8066 18.0419C24.5361 18.123 24.2446 17.9547 23.9911 17.7971C23.9251 19.6502 24.9684 25.4254 22.1808 25.4091C21.0678 25.4399 19.9546 25.4606 18.8421 25.5032C16.554 25.5989 14.2655 25.7442 11.9774 25.805ZM17.5255 24.2642C19.0238 24.2366 20.5275 24.1724 22.0264 24.1362C22.4327 24.1249 22.5275 24.0947 22.611 23.6996C23.0925 21.5462 22.601 19.3182 22.7009 17.1405C22.7397 17.005 22.6906 16.9442 22.5848 16.8781C21.9764 16.4981 21.3674 16.1188 20.7671 15.726C20.4859 15.542 20.2111 15.4414 19.8558 15.4656C19.0433 15.5465 18.2308 15.4538 17.4223 15.56C17.4566 18.4537 17.491 21.3494 17.5255 24.2642ZM13.38 15.5038C12.1834 15.5616 10.9987 15.5242 9.82081 15.7015C9.26697 15.8055 9.24147 15.811 9.09707 16.3207C9.01237 17.2261 8.96503 18.1471 8.96874 19.0558C9.00164 20.6209 9.09987 22.1845 9.16269 23.7491C9.1706 23.9457 9.24337 24.0765 9.42336 24.1332C10.7735 24.5864 12.2441 24.5251 13.6416 24.4559C13.655 21.4738 13.7801 18.5022 13.38 15.5038ZM15.957 11.7438C16.3587 11.0317 16.7524 10.3335 17.1522 9.62459C15.4403 8.64292 13.771 7.5429 11.9791 6.71364C11.8611 6.66125 11.7922 6.69366 11.7384 6.81184C11.5807 7.15782 11.4004 7.49408 11.2566 7.84545C11.1804 8.18037 10.8382 8.70365 11.2452 8.93354C12.8149 9.87665 14.354 10.8543 15.957 11.7438ZM20.7832 11.783C20.3838 12.4519 19.9921 13.1077 19.6168 13.7363C21.2523 14.7578 22.88 15.7745 24.508 16.7914C24.6756 16.5522 25.8161 14.9393 25.4669 14.6819C23.9111 13.7144 22.3523 12.7281 20.7832 11.783ZM20.6862 10.2525C21.3455 10.6755 22.0407 11.0097 22.6784 11.4584C23.0749 11.7341 23.4085 11.7436 23.8166 11.5197C25.9323 10.7181 25.2695 7.59756 22.892 8.50657C22.0253 8.914 21.4099 9.63447 20.6862 10.2525ZM18.9487 9.23469C19.0157 7.92429 19.2188 6.45009 18.3633 5.37527C17.7157 4.64814 16.583 4.93952 16.3807 6.05873C16.2406 6.59114 16.3899 7.11961 16.4265 7.64939C17.1699 8.25647 18.107 8.67539 18.9487 9.23469ZM14.6342 15.481C14.7537 18.4711 14.9313 21.437 14.5799 24.4149C14.7894 24.4047 14.9334 24.3977 15.0766 24.3907C15.2041 21.4323 15.1266 18.4423 15.0008 15.481C14.8794 15.481 14.7853 15.481 14.6342 15.481ZM18.1891 10.2495C17.7602 10.9318 17.3381 11.6032 16.91 12.2842C17.0322 12.3545 17.1507 12.4227 17.2377 12.4727C17.6273 11.7654 18.0094 11.0714 18.3967 10.3682C18.3188 10.3237 18.2508 10.2848 18.1891 10.2495Z" fill="white"/>
<path d="M1.19151 16.8155C1.18652 16.4892 1.35826 16.2612 1.61169 16.0876C3.16246 14.9954 4.73967 13.9478 6.40209 13.0318C7.26341 12.3839 8.21917 13.3388 7.34618 14.0318C5.71647 15.0828 4.12365 16.1885 2.53017 17.2934C2.06564 17.7191 1.18615 17.5198 1.19151 16.8155Z" fill="white"/>
<path d="M6.9674 8.04722C6.97227 8.39512 6.87366 8.57607 6.67354 8.68974C6.30001 8.92622 5.93157 8.62811 5.71618 8.32407C5.30076 7.76673 4.89785 7.20002 4.48657 6.63955C3.72943 5.60778 2.96693 4.57989 2.21379 3.5452C1.91743 3.18622 1.75199 2.58117 2.21148 2.29015C2.58762 2.01196 3.05198 2.224 3.29135 2.57304C3.94419 3.5088 4.58964 4.44972 5.23726 5.38915C5.79134 6.25368 6.54469 7.12506 6.9674 8.04722Z" fill="white"/>
<path d="M3.16355 9.14309C3.86979 9.33043 4.78749 9.61789 5.5215 9.84755C6.58352 10.0247 6.56159 11.198 5.60279 11.1968C4.62434 11.0497 3.64877 10.7892 2.70985 10.4834C1.9853 10.1007 2.23496 9.08408 3.16355 9.14309Z" fill="white"/>
<path d="M8.93686 6.88915C8.97971 7.50133 8.09412 7.77555 7.85962 7.1865C7.69541 6.72106 7.56352 6.23925 7.47471 5.75395C7.38231 5.08953 8.39168 4.83794 8.63665 5.47873C8.78091 5.93123 8.85525 6.42053 8.93686 6.88915Z" fill="white"/>
<path d="M17.5251 24.2632C17.4905 21.3483 17.4562 18.4526 17.4219 15.559C18.2301 15.4526 19.043 15.5454 19.8553 15.4645C20.2106 15.4403 20.4854 15.541 20.7667 15.725C21.3669 16.1177 21.9759 16.497 22.5843 16.8771C22.6901 16.9431 22.7393 17.0039 22.7003 17.1394C22.6005 19.3171 23.092 21.5451 22.6106 23.6985C22.527 24.0936 22.4322 24.1238 22.026 24.1351C20.5272 24.1713 19.0233 24.2356 17.5251 24.2632Z" fill="white"/>
<path d="M13.3801 15.5039C13.7803 18.5024 13.6552 21.4739 13.6417 24.456C12.2443 24.5253 10.7736 24.5864 9.42352 24.1334C9.24356 24.0766 9.17076 23.9458 9.16289 23.7492C9.10006 22.1846 9.00186 20.621 8.96896 19.0559C8.9652 18.1472 9.01256 17.2261 9.0972 16.3208C9.24161 15.811 9.26713 15.8056 9.82098 15.7016C10.9989 15.5243 12.1835 15.5617 13.3801 15.5039Z" fill="white"/>
<path d="M15.9559 11.7442C14.353 10.8548 12.8137 9.87707 11.2441 8.93402C10.6755 8.63996 11.5808 7.25055 11.7372 6.81232C11.7823 6.20458 16.5314 9.34142 17.1511 9.62504C16.7513 10.3339 16.3575 11.0321 15.9559 11.7442Z" fill="white"/>
<path d="M20.7836 11.7832C22.3527 12.7283 23.9114 13.7145 25.4673 14.682C25.8208 14.9305 24.6728 16.5575 24.5084 16.7916C22.8803 15.7747 21.2527 14.758 19.6172 13.7364C19.9925 13.1079 20.3841 12.4521 20.7836 11.7832Z" fill="white"/>
<path d="M14.6363 15.4805C14.7874 15.4805 14.8815 15.4805 15.0029 15.4805C15.1287 18.4417 15.2062 21.4318 15.0787 24.3902C14.9355 24.3972 14.7914 24.4042 14.582 24.4144C14.9333 21.4365 14.7557 18.4705 14.6363 15.4805Z" fill="white"/>
<path d="M18.1893 10.25C18.251 10.2853 18.319 10.3241 18.3969 10.3687C18.0097 11.0718 17.6275 11.7658 17.2379 12.4732C17.1509 12.4231 17.0324 12.355 16.9102 12.2847C17.3384 11.6037 17.7605 10.9322 18.1893 10.25Z" fill="white"/>
</svg>
