<svg width="24" height="24" viewBox="0 0 24 24" fill="none" xmlns="http://www.w3.org/2000/svg">
<path d="M22.999 6.408V8.919C22.999 9.516 22.515 10 21.917 10C21.44 10 21.031 9.683 20.886 9.228C20.667 8.542 20.104 8 18.999 8H17.574C17.574 8 18.775 10.708 18.802 10.756C18.96 11.032 19.018 11.337 18.992 11.631C18.984 11.885 18.826 12.5 18.052 12.912L15.205 14.539C14.679 14.84 14.078 15 13.469 15H5.5C4.122 15 3 16.121 3 17.5V22.5C3 23.328 2.329 24 1.5 24C0.671 24 0 23.328 0 22.5V17.5C0 14.468 2.467 12 5.5 12H13.469C13.556 12 13.641 11.978 13.716 11.935L15.871 10.704L14.168 6.797C14.062 6.553 14.001 6.284 14.001 6V4C14.001 2.895 14.896 2 16.001 2H19.001C20.106 2 20.668 1.457 20.888 0.772C21.034 0.317 21.442 0 21.919 0C22.516 0 23.001 0.484 23.001 1.082V3.592C23.582 3.799 24.001 4.349 24.001 5C24.001 5.651 23.582 6.201 23.001 6.408H22.999ZM5.999 10C8.208 10 9.999 8.209 9.999 6C9.999 3.791 8.208 2 5.999 2C3.79 2 1.999 3.791 1.999 6C1.999 8.209 3.79 10 5.999 10ZM9.499 17C8.67 17 7.999 17.672 7.999 18.5V22.5C7.999 23.328 8.67 24 9.499 24C10.328 24 10.999 23.328 10.999 22.5V18.5C10.999 17.672 10.328 17 9.499 17Z" fill="#596DE7"/>
</svg>
