<svg width="24" height="24" viewBox="0 0 24 24" fill="none" xmlns="http://www.w3.org/2000/svg">
<path d="M1 9.5C1 8.119 2.119 7 3.5 7C4.881 7 6 8.119 6 9.5C6 10.881 4.881 12 3.5 12C2.119 12 1 10.881 1 9.5ZM20.5 12C21.881 12 23 10.881 23 9.5C23 8.119 21.881 7 20.5 7C19.119 7 18 8.119 18 9.5C18 10.881 19.119 12 20.5 12ZM24 16.107V22C24 23.103 23.103 24 22 24H20C18.897 24 18 23.103 18 22V17.082L17.124 17.782C16.947 17.924 16.727 18.001 16.5 18.001H14C13.447 18.001 13 17.553 13 17.001C13 16.449 13.447 16.001 14 16.001H16.149C16.149 16.001 19.162 13.63 19.229 13.598C19.878 13.121 20.687 12.909 21.495 13.041C22.923 13.273 24 14.592 24 16.107ZM22 16.107C22 15.57 21.638 15.09 21.175 15.014C20.583 14.897 19.986 15.395 20 16V22H22V16.107ZM14 20H10C8.897 20 8 20.897 8 22V23C8 23.552 8.447 24 9 24C9.553 24 10 23.552 10 23V22H14V23C14 23.552 14.447 24 15 24C15.553 24 16 23.552 16 23V22C16 20.897 15.103 20 14 20ZM10 18H7.5C7.273 18 7.053 17.923 6.876 17.781L6 17.081V21.999C6 23.102 5.103 23.999 4 23.999H2C0.897 23.999 0 23.102 0 21.999V16.106C0 14.59 1.076 13.272 2.503 13.04C3.279 12.911 4.052 13.104 4.687 13.54C4.768 13.575 7.851 16 7.851 16H10C10.553 16 11 16.448 11 17C11 17.552 10.553 18 10 18ZM4 16C4.014 15.394 3.417 14.897 2.824 15.014C2.362 15.09 2 15.57 2 16.107V22H4V16ZM8.049 7.367C8.306 5.714 9.633 4.356 11.276 4.065C12.454 3.856 13.659 4.17 14.569 4.934C15.479 5.696 16.001 6.814 16.001 8C16.001 9.413 15.241 10.734 14.018 11.447C13.695 11.635 13.501 11.96 13.501 12.314V13C13.501 13.552 13.054 14 12.501 14H11.501C10.948 14 10.501 13.552 10.501 13V12.318C10.501 11.969 10.285 11.629 9.923 11.409C8.536 10.567 7.801 8.98 8.05 7.366L8.049 7.367ZM10.96 9.7C11.387 9.959 11.736 10.294 11.994 10.679C12.249 10.292 12.595 9.961 13.009 9.719C13.63 9.358 14 8.715 14 8C14.023 6.78 12.833 5.782 11.625 6.034C10.823 6.176 10.151 6.866 10.025 7.674C9.898 8.496 10.255 9.274 10.96 9.701V9.7ZM12 3C12.553 3 13 2.552 13 2V1C13 0.448 12.553 0 12 0C11.447 0 11 0.448 11 1V2C11 2.552 11.447 3 12 3ZM16 4C16.256 4 16.512 3.902 16.707 3.707L17.407 3.007C17.798 2.616 17.798 1.984 17.407 1.593C17.016 1.202 16.384 1.202 15.993 1.593L15.293 2.293C14.902 2.684 14.902 3.316 15.293 3.707C15.488 3.902 15.744 4 16 4ZM7.293 3.707C7.684 4.098 8.316 4.098 8.707 3.707C9.098 3.316 9.098 2.684 8.707 2.293L8.007 1.593C7.616 1.202 6.984 1.202 6.593 1.593C6.202 1.984 6.202 2.616 6.593 3.007L7.293 3.707Z" fill="#596DE7"/>
</svg>
